<?xml version="1.0" encoding="UTF-8"?>
<svg xmlns="http://www.w3.org/2000/svg" xmlns:xlink="http://www.w3.org/1999/xlink" width="512" height="512" viewBox="0 0 60 60" version="1.1"><!-- Generator: Sketch 51.3 (57544) - http://www.bohemiancoding.com/sketch --><title>025 - Parcel and Tape</title><desc>Created with Sketch.</desc><defs/><g id="Page-1" stroke="none" stroke-width="1" fill="none" fill-rule="evenodd"><g id="025---Parcel-and-Tape" fill-rule="nonzero"><path d="M49.67,20.14 L44,17.79 L35.91,17.78 L16.09,17.75 L16,17.79 L1,24 L1,46.332 C1.00006569,46.7366724 1.24401701,47.1014151 1.618,47.256 L30,59 L58.382,47.256 C58.755983,47.1014151 58.9999343,46.7366724 59,46.332 L59,24 L49.67,20.14 Z" id="Shape" fill="#F0C419"/><polygon id="Shape" fill="#FFEB3A" points="59 24 42.72 30.74 42.01 31.03 30 36 21 32.28 11 28.14 1 24 16 17.79 16.09 17.75 35.91 17.78 44 17.79 49.67 20.14"/><path d="M30,36 L30,59 L1.618,47.256 C1.24401701,47.1014151 1.00006569,46.7366724 1,46.332 L1,24 L30,36 Z" id="Shape" fill="#FFDC00"/><path d="M59.0000126,24 L59,46.33 C59.0020401,46.7373435 58.7567941,47.1052126 58.38,47.26 L30,59 L30,36 L42.01,31.03 L42.72,30.74 L56,25.24 L59.0000126,24 Z" id="Shape" fill="#F57C00"/><path d="M56.0000126,25.24 L56,47.33 C56.0020401,47.7373435 55.7567941,48.1052126 55.38,48.26 L30,58.76 L30,36 L42.01,31.03 L42.72,30.74 L56.0000126,25.24 Z" id="Shape" fill="#FF9801"/><path d="M49.67,20.14 L21,32.28 L21,38.59 C20.9983042,38.9944441 20.7531528,39.3580455 20.3788524,39.5112679 C20.004552,39.6644903 19.5748091,39.5771614 19.29,39.29 L16.38,36.38 C16.1443356,36.1442829 15.8077955,36.0395815 15.48,36.1 L12.2,36.76 C11.905745,36.8200645 11.600075,36.7447007 11.3674654,36.5547362 C11.1348558,36.3647717 10.9999387,36.0803227 11,35.78 L11,28.14 L35.91,17.78 L44,17.79 L49.67,20.14 Z" id="Shape" fill="#A0522D"/><polygon id="Shape" fill="#825A2C" points="49.67 20.14 21 32.28 11 28.14 35.91 17.78 44 17.79"/><path d="M41.23,20.56 L41.22,20.56 C40.6686982,20.5572435 40.2236248,20.1088195 40.2250031,19.5575125 C40.2263814,19.0062055 40.6736913,18.5600125 41.225,18.5600125 C41.7763087,18.5600125 42.2236186,19.0062055 42.2249969,19.5575125 C42.2263752,20.1088195 41.7813018,20.5572435 41.23,20.56 Z" id="Shape" fill="#000000"/><path d="M30,1 C22.27,1 16,4.13 16,8 C16,9.72 17.23,11.28 19.28,12.5 C19.9702576,12.9118312 20.6965914,13.2599358 21.45,13.54 C21.49,13.55 21.52,13.57 21.56,13.58 C21.78,13.67 22.01,13.75 22.24,13.83 C22.79,14.01 23.38,14.18 23.99,14.32 C24.19,14.37 24.39,14.42 24.6,14.46 C24.6854671,14.4823912 24.7723241,14.4990945 24.86,14.51 C25.18,14.58 25.51,14.63 25.84,14.68 C26.42,14.78 27.02,14.85 27.64,14.9 L28.47,14.96 C28.97,14.99 29.48,15 30,15 C30.52,15 31.03,14.99 31.53,14.96 L32.36,14.9 C32.98,14.85 33.58,14.78 34.16,14.68 C34.49,14.63 34.82,14.58 35.14,14.51 C35.2276759,14.4990945 35.3145329,14.4823912 35.4,14.46 C35.61,14.42 35.81,14.37 36.01,14.32 C36.62,14.18 37.21,14.01 37.76,13.83 C37.99,13.75 38.22,13.67 38.44,13.58 C38.48,13.57 38.51,13.55 38.55,13.54 C39.2998599,13.2516399 40.0254989,12.9038682 40.72,12.5 C42.77,11.28 44,9.72 44,8 C44,4.13 37.73,1 30,1 Z M34.59,9.29 C33.1136319,9.79464313 31.5598407,10.0349899 30,10 C28.4401593,10.0349899 26.8863681,9.79464313 25.41,9.29 C24.53,8.94 24,8.49 24,8 C24,6.89 26.69,6 30,6 C33.31,6 36,6.89 36,8 C36,8.49 35.47,8.94 34.59,9.29 Z" id="Shape" fill="#A0522D"/><path d="M30,1 C22.27,1 16,4.13 16,8 C16,9.72 17.23,11.28 19.28,12.5 C19.9702576,12.9118312 20.6965914,13.2599358 21.45,13.54 C21.49,13.55 21.52,13.57 21.56,13.58 C21.78,13.67 22.01,13.75 22.24,13.83 C22.79,14.01 23.38,14.18 23.99,14.32 C24.19,14.37 24.39,14.42 24.6,14.46 C24.6854671,14.4823912 24.7723241,14.4990945 24.86,14.51 C25.18,14.58 25.51,14.63 25.84,14.68 C26.42,14.78 27.02,14.85 27.64,14.9 L28.47,14.96 C28.97,14.99 29.48,15 30,15 C30.52,15 31.03,14.99 31.53,14.96 L32.36,14.9 C32.98,14.85 33.58,14.78 34.16,14.68 C34.49,14.63 34.82,14.58 35.14,14.51 C35.2276759,14.4990945 35.3145329,14.4823912 35.4,14.46 C35.61,14.42 35.81,14.37 36.01,14.32 C36.62,14.18 37.21,14.01 37.76,13.83 C37.99,13.75 38.22,13.67 38.44,13.58 C38.48,13.57 38.51,13.55 38.55,13.54 C39.2998599,13.2516399 40.0254989,12.9038682 40.72,12.5 C42.77,11.28 44,9.72 44,8 C44,4.13 37.73,1 30,1 Z M34.59,9.29 C33.1136319,9.79464313 31.5598407,10.0349899 30,10 C28.4401593,10.0349899 26.8863681,9.79464313 25.41,9.29 C24.53,8.94 24,8.49 24,8 C24,6.89 26.69,6 30,6 C33.31,6 36,6.89 36,8 C36,8.49 35.47,8.94 34.59,9.29 Z" id="Shape" fill="#A0522D"/><path d="M44,8 C44,9.72 42.77,11.28 40.72,12.5 C40.0254989,12.9038682 39.2998599,13.2516399 38.55,13.54 C38.51,13.55 38.48,13.57 38.44,13.58 C38.22,13.67 37.99,13.75 37.76,13.83 C37.21,14.01 36.62,14.18 36.01,14.32 C35.81,14.37 35.61,14.42 35.4,14.46 C35.3145329,14.4823912 35.2276759,14.4990945 35.14,14.51 C34.82,14.58 34.49,14.63 34.16,14.68 C33.58,14.78 32.98,14.85 32.36,14.9 L31.53,14.96 C31.03,14.99 30.52,15 30,15 C29.5,15 29.01,14.99 28.53,14.96 L29.36,14.9 C29.98,14.85 30.58,14.78 31.16,14.68 C31.49,14.63 31.82,14.58 32.14,14.51 C32.2276759,14.4990945 32.3145329,14.4823912 32.4,14.46 C32.61,14.42 32.81,14.37 33.01,14.32 C33.62,14.18 34.21,14.01 34.76,13.83 C34.99,13.75 35.22,13.67 35.44,13.58 C35.48,13.57 35.51,13.55 35.55,13.54 C36.2998599,13.2516399 37.0254989,12.9038682 37.72,12.5 C39.77,11.28 41,9.72 41,8 C41,4.38 35.53,1.41 28.5,1.04 C28.99,1.01 29.49,1 30,1 C37.73,1 44,4.13 44,8 Z" id="Shape" fill="#783E22"/><path d="M36,8 C36,8.49 35.47,8.94 34.59,9.29 C33.1136319,9.79464313 31.5598407,10.0349899 30,10 C28.4401593,10.0349899 26.8863681,9.79464313 25.41,9.29 C24.53,8.94 24,8.49 24,8 C24,6.89 26.69,6 30,6 C33.31,6 36,6.89 36,8 Z" id="Shape" fill="#624421"/><path d="M42,23 L42.000053,29 L36,27 L30,29 L30,26.85 C29.9974545,25.3112183 28.8310707,24.0238763 27.3,23.87 C20.86,23.24 16,20.41 16,17 L16,8 C16,9.72 17.23,11.28 19.28,12.5 C19.9702576,12.9118312 20.6965914,13.2599358 21.45,13.54 C21.49,13.55 21.52,13.57 21.56,13.58 C21.78,13.67 22.01,13.75 22.24,13.83 C22.79,14.01 23.38,14.18 23.99,14.32 C24.19,14.37 24.39,14.42 24.6,14.46 C24.6854671,14.4823912 24.7723241,14.4990945 24.86,14.51 C25.18,14.58 25.51,14.63 25.84,14.68 C26.42,14.78 27.02,14.85 27.64,14.9 L28.47,14.96 C28.97,14.99 29.48,15 30,15 L34,15 C37.586017,14.9992519 40.7337403,17.386616 41.7,20.84 C41.9017008,21.5421779 42.0027083,22.2694319 42,23 Z" id="Shape" fill="#825A2C"/><path d="M44,8 L44,17 C43.884183,18.5718416 43.0311251,19.9960773 41.7,20.84 C40.7337403,17.386616 37.586017,14.9992519 34,15 L30,15 C30.52,15 31.03,14.99 31.53,14.96 L32.36,14.9 C32.98,14.85 33.58,14.78 34.16,14.68 C34.49,14.63 34.82,14.58 35.14,14.51 C35.2276759,14.4990945 35.3145329,14.4823912 35.4,14.46 C35.61,14.42 35.81,14.37 36.01,14.32 C36.62,14.18 37.21,14.01 37.76,13.83 C37.99,13.75 38.22,13.67 38.44,13.58 C38.48,13.57 38.51,13.55 38.55,13.54 C39.2998599,13.2516399 40.0254989,12.9038682 40.72,12.5 C42.77,11.28 44,9.72 44,8 Z" id="Shape" fill="#91562D"/><path d="M30,37 C29.8688904,37.0002115 29.7390446,36.9743783 29.618,36.924 L0.618,24.924 C0.244170964,24.7692928 0.000392468545,24.4045769 0.000392468545,24 C0.000392468545,23.5954231 0.244170964,23.2307072 0.618,23.076 L15.618,16.866 C16.1306103,16.6494257 16.7229621,16.873428 16.964,17.375 C17.0759229,17.6074377 17.0894769,17.8751661 17.001601,18.1177189 C16.913725,18.3602716 16.7318311,18.55719 16.497,18.664 L16.382,18.714 L3.615,24 L30,34.918 L56.386,24 L43.618,18.714 C43.2816801,18.581732 43.0428933,18.278293 42.9934113,17.9203022 C42.9439293,17.5623114 43.0914521,17.2054761 43.379283,16.9869372 C43.6671138,16.7683982 44.0504631,16.7221627 44.382,16.866 L59.382,23.076 C59.755829,23.2307072 59.9996075,23.5954231 59.9996075,24 C59.9996075,24.4045769 59.755829,24.7692928 59.382,24.924 L30.382,36.924 C30.2609554,36.9743783 30.1311096,37.0002115 30,37 Z" id="Shape" fill="#000000"/><path d="M43.642,19.553 C43.2448532,19.5508796 42.8866007,19.3139397 42.7292133,18.9493039 C42.5718259,18.584668 42.6451363,18.161453 42.916,17.871 C43.0162322,17.7652971 43.1370468,17.6812374 43.271,17.624 L44.371,17.174 C44.7018279,17.0389536 45.079572,17.0906602 45.3619395,17.3096424 C45.6443071,17.5286246 45.7883999,17.8816138 45.7399396,18.2356424 C45.6914792,18.589671 45.4578279,18.8909536 45.127,19.026 L44.061,19.462 C43.9293487,19.5216484 43.7865333,19.5526656 43.642,19.553 Z" id="Shape" fill="#000000"/><path d="M16,31 C15.5229402,30.9998129 15.1124423,30.6626696 15.0195381,30.1947435 C14.9266338,29.7268174 15.1771967,29.258424 15.618,29.076 L28.605,23.7 C29.1125497,23.4818475 29.7008475,23.7164503 29.919,24.224 C30.1371525,24.7315497 29.9025497,25.3198475 29.395,25.538 L28.387,25.955 L16.387,30.923 C16.2644737,30.974375 16.1328599,31.0005617 16,31 Z" id="Shape" fill="#000000"/><path d="M11,29 C10.5229402,28.9998129 10.1124423,28.6626696 10.0195381,28.1947435 C9.92663381,27.7268174 10.1771967,27.258424 10.618,27.076 L22.578,22.126 C22.9095369,21.9821627 23.2928862,22.0283982 23.580717,22.2469372 C23.8685479,22.4654761 24.0160707,22.8223114 23.9665887,23.1803022 C23.9171067,23.538293 23.6783199,23.841732 23.342,23.974 L11.382,28.924 C11.2609554,28.9743783 11.1311096,29.0002115 11,29 Z" id="Shape" fill="#000000"/><path d="M21,33 C20.5229402,32.9998129 20.1124423,32.6626696 20.0195381,32.1947435 C19.9266338,31.7268174 20.1771967,31.258424 20.618,31.076 L29.618,27.355 C30.1285872,27.1440273 30.7135272,27.3869128 30.9245,27.8975 C31.1354727,28.4080873 30.8925872,28.9930272 30.382,29.204 L21.382,32.924 C21.2609321,32.9743019 21.1311018,33.000132 21,33 Z" id="Shape" fill="#000000"/><path d="M41.23,20.56 L41.22,20.56 C40.6686982,20.5572435 40.2236248,20.1088195 40.2250031,19.5575125 C40.2263814,19.0062055 40.6736913,18.5600125 41.225,18.5600125 C41.7763087,18.5600125 42.2236186,19.0062055 42.2249969,19.5575125 C42.2263752,20.1088195 41.7813018,20.5572435 41.23,20.56 Z" id="Shape" fill="#000000"/><path d="M30,60 C29.4477153,60 29,59.5522847 29,59 L29,36 C29,35.4477153 29.4477153,35 30,35 C30.5522847,35 31,35.4477153 31,36 L31,59 C31,59.5522847 30.5522847,60 30,60 Z" id="Shape" fill="#000000"/><path d="M1,48 C0.44771525,48 6.76353751e-17,47.5522847 0,47 L0,24 C-6.76353751e-17,23.4477153 0.44771525,23 1,23 C1.55228475,23 2,23.4477153 2,24 L2,47 C2,47.5522847 1.55228475,48 1,48 Z" id="Shape" fill="#000000"/><path d="M59,48 C58.4477153,48 58,47.5522847 58,47 L58,24 C58,23.4477153 58.4477153,23 59,23 C59.5522847,23 60,23.4477153 60,24 L60,47 C60,47.5522847 59.5522847,48 59,48 Z" id="Shape" fill="#000000"/><path d="M30,16 C26.0903644,16.1039144 22.2204367,15.193708 18.767,13.358 C16.3,11.892 15,10.039 15,8 C15,3.514 21.589,0 30,0 C38.411,0 45,3.514 45,8 C45,10.039 43.7,11.892 41.231,13.359 C37.7781119,15.194153 33.9088879,16.1040115 30,16 Z M30,2 C22.224,2 17,5.1 17,8 C17,9.276 17.991,10.569 19.792,11.641 C22.9349438,13.2927423 26.4510193,14.1052837 30,14 C33.5485383,14.105237 37.0641971,13.2930568 40.207,11.642 C42.009,10.569 43,9.276 43,8 C43,5.1 37.776,2 30,2 Z" id="Shape" fill="#000000"/><path d="M30,11 C28.3117935,11.0359621 26.6307333,10.7701216 25.036,10.215 C23.354,9.547 23,8.642 23,8 C23,5.928 26.516,5 30,5 C33.484,5 37,5.928 37,8 C37,8.642 36.646,9.547 34.963,10.215 C33.3686352,10.7702127 31.6878863,11.0360575 30,11 Z M25.1,8 C25.3096322,8.14947298 25.5383298,8.27021183 25.78,8.359 C28.5385983,9.16547637 31.4704017,9.16547637 34.229,8.359 C34.4693219,8.26998663 34.6966682,8.14925099 34.905,8 C34.431,7.626 32.756,7 30,7 C27.244,7 25.569,7.626 25.1,8 Z" id="Shape" fill="#000000"/><path d="M30,16 C26.0903644,16.1039144 22.2204367,15.193708 18.767,13.358 C18.4503651,13.179619 18.2554329,12.8434963 18.2578558,12.4800797 C18.2602788,12.1166631 18.4596753,11.7831695 18.7786606,11.6090262 C19.0976458,11.4348829 19.4859982,11.4475073 19.793,11.642 C22.9358029,13.2930568 26.4514617,14.105237 30,14 C33.5485383,14.105237 37.0641971,13.2930568 40.207,11.642 C40.5140018,11.4475073 40.9023542,11.4348829 41.2213394,11.6090262 C41.5403247,11.7831695 41.7397212,12.1166631 41.7421442,12.4800797 C41.7445671,12.8434963 41.5496349,13.179619 41.233,13.358 C37.7795633,15.193708 33.9096356,16.1039144 30,16 Z" id="Shape" fill="#000000"/><path d="M42,30 C41.8926254,29.9999053 41.7859527,29.9826891 41.684,29.949 L36,28.054 L30.316,29.954 C30.010189,30.0558604 29.6740292,30.0040687 29.413059,29.8148851 C29.1520888,29.6257015 28.9983093,29.3223244 29,29 L29,26.85 C29.0044732,25.8220773 28.2234593,24.9607925 27.2,24.865 C20.019,24.164 15,20.93 15,17 L15,8 C15,7.44771525 15.4477153,7 16,7 C16.5522847,7 17,7.44771525 17,8 C17,9.276 17.991,10.569 19.792,11.641 C20.4310733,12.0205114 21.1031406,12.3414839 21.8,12.6 C24.424729,13.5641609 27.2040543,14.0386798 30,14 C32.7911354,14.040214 35.5659975,13.5684163 38.187,12.608 C38.8877062,12.3379404 39.5661247,12.0132758 40.216,11.637 C42.009,10.569 43,9.276 43,8 C43,7.44771525 43.4477153,7 44,7 C44.5522847,7 45,7.44771525 45,8 L45,17 C44.9314417,18.6575285 44.134325,20.200158 42.822,21.215 C42.940789,21.8025635 43.00042,22.400549 43,23 L43,29 C43,29.5522847 42.5522847,30 42,30 Z M36,26 C36.1073885,25.9999223 36.2140884,26.0171429 36.316,26.051 L41.0000008,27.613 L41,23 C41.0002984,22.3875296 40.920283,21.7776642 40.762,21.186 C40.7433956,21.13664 40.7290107,21.0857911 40.719,21.034 C39.8423439,18.0524604 37.107747,16.0036494 34,16 L30,16 C26.960553,16.0400609 23.9395459,15.5221546 21.087,14.472 C20.2809076,14.1712385 19.5037294,13.7980457 18.765,13.357 C18.1337395,12.9878856 17.542271,12.5545889 17,12.064 L17,17 C17,19.771 21.47,22.3 27.4,22.875 C29.4472459,23.0699301 31.0082251,24.7935113 31,26.85 L31,27.613 L35.684,26.051 C35.7859116,26.0171429 35.8926115,25.9999223 36,26 Z M37.83,14.856 C39.6997332,15.7406953 41.2106735,17.238227 42.112,19.1 C42.6505854,18.5293547 42.9657952,17.7839262 43,17 L43,12.064 C42.456698,12.5566835 41.8642602,12.9922996 41.232,13.364 C40.489141,13.7963742 39.7130196,14.1688857 38.911,14.478 C38.5603333,14.6106667 38.2,14.7366667 37.83,14.856 Z" id="Shape" fill="#000000"/><path d="M30,60 C29.8688904,60.0002115 29.7390446,59.9743783 29.618,59.924 L0.618,47.924 C0.117538081,47.7068745 -0.116556724,47.1287077 0.0918679194,46.6245601 C0.300292563,46.1204125 0.87431804,45.8763387 1.382,46.076 L30,57.918 L58.617,46.076 C59.1273111,45.864475 59.7124749,46.1066889 59.9239999,46.617 C60.135525,47.1273111 59.8933111,47.7124749 59.383,47.924 L30.383,59.924 C30.2616447,59.9745084 30.1314461,60.0003442 30,60 Z" id="Shape" fill="#000000"/><path d="M51.039,45.294 C50.5617522,45.2942902 50.1508102,44.9572981 50.0576353,44.489234 C49.9644604,44.0211699 50.2150229,43.5524958 50.656,43.37 L58.617,40.076 C58.9471134,39.9391673 59.3251502,39.988842 59.6087075,40.2063123 C59.8922648,40.4237825 60.0382636,40.7760093 59.9917075,41.1303123 C59.9451514,41.4846152 59.7131134,41.7871673 59.383,41.924 L51.422,45.218 C51.3005676,45.2682542 51.1704203,45.2940798 51.039,45.294 Z" id="Shape" fill="#000000"/><path d="M54.024,39.06 C53.5459899,39.0609742 53.1341315,38.7235166 53.0410885,38.2546482 C52.9480455,37.7857797 53.1998387,37.3166261 53.642,37.135 L58.617,35.076 C59.1273111,34.864475 59.7124749,35.1066889 59.9239999,35.617 C60.135525,36.1273111 59.8933111,36.7124749 59.383,36.924 L54.407,38.983 C54.2856372,39.0335969 54.1554874,39.0597628 54.024,39.06 Z" id="Shape" fill="#000000"/><path d="M47,36.966 C46.5229402,36.9658129 46.1124423,36.6286696 46.0195381,36.1607435 C45.9266338,35.6928174 46.1771967,35.224424 46.618,35.042 L58.618,30.076 C59.1283111,29.8644749 59.7134749,30.1066889 59.925,30.617 C60.1365251,31.1273111 59.8943111,31.7124749 59.384,31.924 L47.384,36.889 C47.2623264,36.939726 47.131824,36.9658944 47,36.966 Z" id="Shape" fill="#000000"/><path d="M21,42 C20.7348052,41.9999434 20.4804927,41.8945494 20.293,41.707 L15.671,37.085 L11.2,37.98 C10.905745,38.0400645 10.600075,37.9647007 10.3674654,37.7747362 C10.1348558,37.5847717 9.9999387,37.3003227 10,37 L10,28.14 C10,27.5877153 10.4477153,27.14 11,27.14 C11.5522847,27.14 12,27.5877153 12,28.14 L12,35.78 L15.8,35.02 C16.1267434,34.9554451 16.4641818,35.0578014 16.7,35.293 L20,38.586 L20,32.28 C20,31.7277153 20.4477153,31.28 21,31.28 C21.5522847,31.28 22,31.7277153 22,32.28 L22,41 C22,41.5522847 21.5522847,42 21,42 Z" id="Shape" fill="#000000"/></g></g></svg>
