<svg height="512pt" viewBox="0 -30 512.00212 512" width="512pt" xmlns="http://www.w3.org/2000/svg"><path d="m459.691406 252.671875c-3.917968 10.691406-10.222656 20.351563-18.433594 28.246094-16.863281 16.414062-40.328124 24.179687-63.65625 21.074219l-.171874-.085938-63.0625-38.140625 9.046874-10.753906 61.183594-72.789063 4.863282-5.800781 70.570312 25.769531c6.160156 16.972656 6.039062 35.589844-.339844 52.480469zm0 0" fill="#00838f"/><path d="m438.871094 252.671875c-3.917969 10.691406-10.222656 20.351563-18.433594 28.246094-11.734375 11.394531-26.804688 18.75-43.007812 20.988281l-63.0625-38.140625 9.046874-10.753906 61.183594-72.789063 54.613282 19.96875c6.160156 16.972656 6.039062 35.589844-.339844 52.480469zm0 0" fill="#00bcd4"/><path d="m441.257812 280.917969c-16.863281 16.414062-40.328124 24.179687-63.65625 21.074219l-63.234374-38.226563 9.046874-10.753906 21.246094-2.558594s65.792969-13.910156 96.597656 30.464844zm0 0" fill="#00838f"/><path d="m93.867188 309.160156v57.773438c.003906 9.050781-3.59375 17.734375-9.996094 24.136718-6.402344 6.402344-15.085938 9.996094-24.136719 9.996094h-51.199219v-34.132812h34.132813c9.414062-.027344 17.039062-7.652344 17.066406-17.066406v-51.203126zm0 0" fill="#7f8e94"/><path d="m493.398438 169.042969-101.546876 94.722656-23.125-8.621094-344.746093-128.425781 8.957031-23.980469 5.972656-16.039062 20.824219-55.980469c5.453125-14.664062 20.210937-23.71875 35.753906-21.929688 2.800781.257813 5.558594.886719 8.191407 1.875l386.816406 144.214844c2.773437 1.003906 4.824218 3.378906 5.414062 6.269532.59375 2.890624-.359375 5.878906-2.511718 7.894531zm0 0" fill="#0377bc"/><path d="m469.417969 161.277344-100.691407 93.867187-344.746093-128.425781 8.957031-23.980469 5.972656-16.039062 20.824219-55.980469c5.453125-14.664062 20.210937-23.71875 35.753906-21.929688l371.027344 138.324219c2.773437 1.007813 4.824219 3.378907 5.417969 6.269531.589844 2.890626-.359375 5.878907-2.515625 7.894532zm0 0" fill="#02a9f4"/><path d="m391.851562 263.765625-17.921874 48.042969c-1.578126 4.234375-4.78125 7.664062-8.894532 9.539062-4.113281 1.871094-8.804687 2.03125-13.035156.441406l-16.894531-6.3125-302.933594-112.894531c-8.492187-3.140625-15.378906-9.53125-19.144531-17.765625-3.761719-8.230468-4.089844-17.625-.910156-26.097656l11.179687-30.207031.683594-1.792969zm0 0" fill="#283593"/><path d="m366.933594 256.511719-17.921875 48.042969c-2.203125 5.972656-7.582031 10.195312-13.90625 10.921874l-302.933594-112.894531c-8.492187-3.140625-15.378906-9.53125-19.144531-17.765625-3.761719-8.230468-4.089844-17.625-.910156-26.097656l11.179687-30.207031zm0 0" fill="#3f51b5"/><path d="m168.105469 253.269531-30.035157 37.203125c-2.304687 2.875-6.195312 3.941406-9.644531 2.644532l-84.394531-31.488282c-3.507812-1.183594-5.78125-4.578125-5.546875-8.277344l1.621094-47.785156 105.730469 39.425782zm0 0" fill="#37474f"/><path d="m145.835938 244.992188-29.183594 36.179687c-2.296875 2.886719-6.195313 3.953125-9.644532 2.644531l-66.816406-24.917968c-1.207031-1.585938-1.8125-3.550782-1.707031-5.546876l1.621094-47.785156zm0 0" fill="#607d8b"/><path d="m116.90625 288.816406c-6.828125 17.210938-26.160156 25.816406-43.519531 19.363282-17.359375-6.453126-26.378907-25.589844-20.308594-43.085938zm0 0" fill="#7f8e94"/><path d="m391.816406 272.324219c-1.015625 0-2.027344-.183594-2.980468-.539063l-367.816407-137.082031c-4.410156-1.644531-6.65625-6.554687-5.015625-10.972656l35.753906-95.953125c8.230469-22.078125 32.800782-33.308594 54.878907-25.078125l399.816406 148.996093c2.769531 1.035157 4.808594 3.429688 5.382813 6.328126.578124 2.902343-.386719 5.894531-2.550782 7.910156l-111.648437 104.097656c-1.578125 1.472656-3.660157 2.292969-5.820313 2.292969zm-356.839844-150.632813 354.878907 132.257813 97.695312-91.085938-386.867187-144.175781c-13.246094-4.914062-27.972656 1.8125-32.929688 15.042969zm0 0"/><path d="m357.957031 331.417969c-3.058593 0-6.089843-.550781-8.953125-1.625l-319.839844-119.203125c-22.0625-8.25-33.28125-32.800782-25.082031-54.878906l11.921875-31.980469c1.648438-4.410157 6.558594-6.65625 10.976563-5.015625l367.816406 137.078125c4.414063 1.648437 6.660156 6.5625 5.015625 10.976562l-17.878906 47.976563c-3.742188 10.007812-13.292969 16.652344-23.980469 16.671875zm-2.996093-17.617188c4.417968 1.628907 9.320312-.609375 10.980468-5.015625l14.902344-39.976562-351.832031-131.125-8.941407 23.984375c-4.917968 13.25 1.8125 27.980469 15.046876 32.929687zm0 0"/><path d="m388.019531 311.246094c-3.871093-.003906-7.742187-.261719-11.582031-.777344-4.671875-.628906-7.949219-4.921875-7.320312-9.59375.628906-4.671875 4.925781-7.949219 9.59375-7.320312 31.554687 4.039062 61.757812-14.109376 72.996093-43.871094 5.617188-15.019532 5.734375-31.542969.328125-46.636719-1.597656-4.4375.707032-9.328125 5.144532-10.921875s9.324218.710938 10.921874 5.148438c9.289063 26.078124 5.351563 55.042968-10.566406 77.695312-15.914062 22.652344-41.828125 36.175781-69.515625 36.273438zm0 0"/><path d="m371.753906 228.425781c-1.019531-.003906-2.03125-.1875-2.988281-.542969l-7.996094-2.988281c-4.414062-1.648437-6.660156-6.5625-5.011719-10.976562 1.648438-4.417969 6.5625-6.664063 10.980469-5.015625l7.996094 2.988281c3.875 1.4375 6.164063 5.449219 5.429687 9.515625-.738281 4.070312-4.28125 7.027344-8.417968 7.015625zm0 0"/><path d="m331.777344 213.523438c-1.019532 0-2.027344-.183594-2.980469-.542969l-295.859375-110.261719c-4.355469-1.683594-6.546875-6.558594-4.914062-10.9375 1.628906-4.375 6.476562-6.628906 10.875-5.054688l295.855468 110.265626c3.875 1.4375 6.160156 5.445312 5.429688 9.511718-.734375 4.066406-4.277344 7.023438-8.410156 7.019532zm0 0"/><path d="m134.203125 303.808594c-1.015625 0-2.023437-.183594-2.976563-.539063l-95.957031-35.761719c-3.441406-1.285156-5.675781-4.625-5.546875-8.296874l1.890625-53.929688c.09375-2.742188 1.503907-5.269531 3.78125-6.792969 2.28125-1.527343 5.15625-1.863281 7.726563-.902343l127.9375 47.679687c2.570312.957031 4.519531 3.089844 5.246094 5.734375.726562 2.648438.136718 5.480469-1.585938 7.613281l-33.871094 42.015625c-1.621094 2.011719-4.0625 3.179688-6.644531 3.179688zm-87.210937-50.148438 84.429687 31.46875 22.582031-28.007812-105.753906-39.414063zm0 0"/><path d="m85.332031 318.765625c-13.777343.046875-26.726562-6.589844-34.738281-17.800781-8.011719-11.210938-10.09375-25.609375-5.589844-38.632813.988282-2.886719 3.4375-5.023437 6.429688-5.613281 2.992187-.585938 6.070312.464844 8.074218 2.761719 2.007813 2.300781 2.632813 5.492187 1.644532 8.375-4.515625 13.09375 2.234375 27.402343 15.214844 32.242187 12.976562 4.839844 27.449218-1.558594 32.601562-14.414062 1.78125-4.304688 6.6875-6.386719 11.019531-4.675782 4.335938 1.710938 6.496094 6.582032 4.855469 10.941407-6.363281 16.246093-22.0625 26.902343-39.511719 26.816406zm0 0"/><path d="m59.734375 409.597656h-51.199219c-4.714844 0-8.535156-3.820312-8.535156-8.53125v-34.132812c0-4.714844 3.820312-8.535156 8.535156-8.535156h34.132813c4.710937-.003907 8.527343-3.824219 8.53125-8.53125v-51.203126c0-4.710937 3.820312-8.53125 8.535156-8.53125 4.710937 0 8.53125 3.820313 8.53125 8.53125v51.203126c-.015625 14.128906-11.46875 25.582031-25.597656 25.597656h-25.601563v17.066406h42.667969c14.132813-.015625 25.582031-11.46875 25.597656-25.597656v-57.773438c0-4.710937 3.820313-8.53125 8.535157-8.53125 4.710937 0 8.53125 3.820313 8.53125 8.53125v57.773438c-.027344 23.550781-19.113282 42.636718-42.664063 42.664062zm0 0"/><path d="m8.535156 452.265625c-4.714844 0-8.535156-3.820313-8.535156-8.535156v-119.464844c0-4.714844 3.820312-8.535156 8.535156-8.535156 4.710938 0 8.53125 3.820312 8.53125 8.535156v119.464844c0 4.714843-3.820312 8.535156-8.53125 8.535156zm0 0"/></svg>