<svg height="512pt" viewBox="0 0 512 512" width="512pt" xmlns="http://www.w3.org/2000/svg" xmlns:xlink="http://www.w3.org/1999/xlink"><linearGradient id="a" gradientUnits="userSpaceOnUse" x1="105.22545377044" x2="406.79161279204" y1="105.20838720796" y2="406.77454622956"><stop offset="0" stop-color="#d3dff2"/><stop offset=".172" stop-color="#d3dff2"/><stop offset=".2" stop-color="#d3dff2"/><stop offset=".2" stop-color="#dae2f2"/><stop offset=".201" stop-color="#ebeaf2"/><stop offset=".201" stop-color="#f6eff2"/><stop offset=".202" stop-color="#fdf2f2"/><stop offset=".205" stop-color="#fff3f2"/><stop offset=".252" stop-color="#fff3f2"/><stop offset=".26" stop-color="#fff3f2"/><stop offset=".26" stop-color="#d3dff2"/><stop offset=".397" stop-color="#d3dff2"/><stop offset=".42" stop-color="#d3dff2"/><stop offset=".42" stop-color="#dae2f2"/><stop offset=".421" stop-color="#ebeaf2"/><stop offset=".421" stop-color="#f6eff2"/><stop offset=".422" stop-color="#fdf2f2"/><stop offset=".425" stop-color="#fff3f2"/><stop offset=".489" stop-color="#fff3f2"/><stop offset=".5" stop-color="#fff3f2"/><stop offset=".5" stop-color="#f8f0f2"/><stop offset=".5" stop-color="#e7e8f2"/><stop offset=".5" stop-color="#dce3f2"/><stop offset=".5" stop-color="#d5e0f2"/><stop offset=".501" stop-color="#d3dff2"/><stop offset=".706" stop-color="#d3dff2"/><stop offset=".74" stop-color="#d3dff2"/><stop offset=".741" stop-color="#fff3f2"/><stop offset=".835" stop-color="#fff3f2"/><stop offset=".85" stop-color="#fff3f2"/><stop offset=".851" stop-color="#d3dff2"/></linearGradient><path d="m503.464844 256c0 136.671875-110.792969 247.464844-247.464844 247.464844-4.265625 0-8.535156-.082032-12.714844-.339844h-.171875c-131.441406-6.910156-234.472656-115.503906-234.472656-247.125s103.03125-240.214844 234.472656-247.125h.171875c4.179688-.257812 8.449219-.339844 12.714844-.339844 136.671875 0 247.464844 110.792969 247.464844 247.464844zm0 0" fill="#d4e1f4"/><path d="m477.867188 256c-.003907 131.664062-103.097657 240.269531-234.582032 247.125h-.171875c-131.441406-6.910156-234.472656-115.503906-234.472656-247.125s103.03125-240.214844 234.472656-247.125h.171875c131.484375 6.855469 234.578125 115.460938 234.582032 247.125zm0 0" fill="#e3e7f2"/><path d="m469.164062 247.464844c-1.214843-31.582032-9.496093-62.492188-24.234374-90.453125 0-.082031-.085938-.082031-.085938-.167969-2.625-5.0625-5.503906-9.988281-8.621094-14.765625-16.875-26.773437-39.527344-49.425781-66.300781-66.300781-4.777344-3.117188-9.703125-5.996094-14.765625-8.621094-27.996094-14.804688-58.972656-23.117188-90.621094-24.320312-2.816406-.082032-5.71875-.167969-8.535156-.167969s-5.71875.085937-8.535156.167969c-31.648438 1.203124-62.625 9.515624-90.621094 24.320312-5.0625 2.625-9.988281 5.503906-14.765625 8.621094-26.773437 16.875-49.425781 39.527344-66.300781 66.300781-3.117188 4.777344-5.996094 9.703125-8.621094 14.765625-14.804688 27.996094-23.117188 58.972656-24.320312 90.621094-.082032 2.816406-.167969 5.71875-.167969 8.535156s.085937 5.71875.167969 8.535156c1.203124 31.648438 9.515624 62.625 24.320312 90.621094 2.625 5.0625 5.503906 9.988281 8.621094 14.765625.851562 1.363281 1.707031 2.730469 2.730468 4.09375 16.539063 25.007813 38.210938 46.214844 63.570313 62.207031 4.777344 3.117188 9.703125 5.996094 14.765625 8.621094 27.996094 14.804688 58.972656 23.117188 90.621094 24.320312 2.816406.082032 5.71875.167969 8.535156.167969s5.71875-.085937 8.535156-.167969c31.648438-1.203124 62.625-9.515624 90.621094-24.320312 5.0625-2.625 9.988281-5.503906 14.765625-8.621094 26.773437-16.875 49.425781-39.527344 66.300781-66.300781 3.117188-4.777344 5.996094-9.703125 8.621094-14.765625 14.804688-27.996094 23.117188-58.972656 24.320312-90.621094.082032-2.816406.167969-5.71875.167969-8.535156s-.085937-5.71875-.167969-8.535156zm0 0" fill="url(#a)"/><path d="m281.601562 256c0 14.136719-11.464843 25.601562-25.601562 25.601562s-25.601562-11.464843-25.601562-25.601562 11.464843-25.601562 25.601562-25.601562 25.601562 11.464843 25.601562 25.601562zm0 0" fill="#a4c2f7"/><path d="m243.113281 503.125h.171875c4.179688.257812 8.449219.339844 12.714844.339844s8.667969-.117188 12.96875-.339844h-.253906c-131.441406-6.910156-234.472656-115.503906-234.472656-247.125s103.03125-240.214844 234.472656-247.125h.253906c-4.300781-.226562-8.621094-.339844-12.96875-.339844-4.265625 0-8.535156.082032-12.714844.339844h-.171875c-131.441406 6.910156-234.472656 115.503906-234.472656 247.125s103.03125 240.214844 234.472656 247.125zm0 0" fill="#fff"/><path d="m17.066406 256c.128906 35.835938 8.269532 71.191406 23.824219 103.476562 4.832031 10.070313 10.3125 19.816407 16.410156 29.175782 3.175781 4.589844 6.65625 8.976562 9.957031 13.472656 3.253907 4.546875 6.84375 8.839844 10.738282 12.851562 14.796875 16.78125 31.96875 31.3125 50.96875 43.125 18.882812 11.988282 39.390625 21.199219 60.894531 27.351563 21.535156 6.046875 43.773437 9.234375 66.140625 9.480469v17.066406c-23.953125-.25-47.765625-3.664062-70.828125-10.144531-23.046875-6.597657-45.027344-16.46875-65.269531-29.3125-20.355469-12.664063-38.753906-28.226563-54.613282-46.199219-4.167968-4.304688-8.023437-8.902344-11.527343-13.757812-3.542969-4.820313-7.253907-9.523438-10.652344-14.445313-6.546875-10.019531-12.425781-20.464844-17.59375-31.257813-16.667969-34.597656-25.386719-72.480468-25.515625-110.882812zm0 0" fill="#fff"/><g fill="#428dff"><path d="m13.78125 331.042969c1.023438.519531 2.140625.824219 3.285156.902343 1.121094.109376 2.253906-.007812 3.328125-.339843 4.378907-1.46875 6.925781-6.023438 5.886719-10.523438-.582031-2.113281-1.960938-3.925781-3.847656-5.050781l-1.492188-.65625c-.550781-.191406-1.125-.3125-1.707031-.359375-.527344-.117187-1.074219-.15625-1.613281-.117187-.574219.039062-1.144532.121093-1.707032.246093-2.195312.5625-4.078124 1.964844-5.257812 3.898438-2.234375 4.207031-.890625 9.421875 3.097656 12.023437zm0 0"/><path d="m256 0c-141.320312.160156-255.839844 114.679688-256 256l.851562 17.628906.515626 8.824219 1.320312 8.730469c.292969 2.269531 1.496094 4.324218 3.332031 5.695312 1.832031 1.367188 4.144531 1.9375 6.40625 1.574219 4.574219-.765625 7.734375-4.996094 7.167969-9.601563l-1.253906-8.140624-.429688-8.234376-.84375-16.476562c0-131.960938 106.972656-238.933594 238.933594-238.933594s238.933594 106.972656 238.933594 238.933594-106.972656 238.933594-238.933594 238.933594c-22.367188-.246094-44.605469-3.433594-66.140625-9.480469-21.503906-6.152344-42.011719-15.363281-60.894531-27.351563-19-11.8125-36.171875-26.34375-50.96875-43.125-3.894532-4.011718-7.484375-8.304687-10.738282-12.851562-3.300781-4.496094-6.78125-8.882812-9.957031-13.472656-6.097656-9.359375-11.578125-19.105469-16.410156-29.175782l-3.574219-7.425781c-1.96875-4.152343-6.800781-6.085937-11.09375-4.445312-2.15625.835937-3.871094 2.527343-4.738281 4.671875-.863281 2.144531-.800781 4.554687.171875 6.652344l3.832031 7.953124c5.171875 10.792969 11.050781 21.238282 17.597657 31.257813 3.414062 4.921875 7.105468 9.625 10.648437 14.445313 3.496094 4.855468 7.339844 9.453124 11.496094 13.757812 15.859375 17.972656 34.257812 33.535156 54.613281 46.199219 20.257812 12.851562 42.261719 22.722656 65.328125 29.3125 23.0625 6.480469 46.875 9.894531 70.828125 10.144531 141.386719 0 256-114.613281 256-256s-114.613281-256-256-256zm0 0"/><path d="m63.855469 366.933594c.136719.230468.324219.402344.476562.613281 19.429688 33.207031 47.097657 60.835937 80.332031 80.214844.15625.09375.242188.253906.402344.347656.164063.09375.496094.1875.742188.308594 68.226562 39.21875 152.15625 39.21875 220.382812 0 .246094-.121094.503906-.171875.742188-.308594.238281-.136719.246094-.253906.402344-.347656 33.234374-19.378907 60.902343-47.007813 80.332031-80.214844.152343-.210937.339843-.382813.476562-.613281.136719-.230469.085938-.339844.171875-.511719 39.398438-68.34375 39.398438-152.5 0-220.84375-.085937-.171875-.078125-.347656-.171875-.511719-.09375-.160156-.253906-.246094-.347656-.390625-19.429687-33.320312-47.148437-61.039062-80.460937-80.472656-.15625-.09375-.242188-.253906-.402344-.347656-.164063-.09375-.339844-.085938-.511719-.171875-68.34375-39.398438-152.5-39.398438-220.84375 0-.171875.085937-.347656.078125-.511719.171875-.160156.09375-.246094.253906-.402344.347656-33.3125 19.429687-61.03125 47.148437-80.460937 80.460937-.09375.15625-.253906.242188-.347656.402344-.09375.164063-.085938.339844-.171875.511719-39.398438 68.34375-39.398438 152.5 0 220.84375.085937.171875.078125.347656.171875.511719zm82.5-283.777344 12.65625 21.914062c1.511719 2.664063 4.335937 4.308594 7.398437 4.316407 3.0625.007812 5.890625-1.628907 7.417969-4.285157 1.523437-2.652343 1.511719-5.921874-.039063-8.5625l-12.671874-21.949218c26.710937-14.03125 56.203124-21.949219 86.347656-23.175782v25.386719c0 4.710938 3.824218 8.53125 8.535156 8.53125s8.535156-3.820312 8.535156-8.53125v-25.386719c30.144532 1.226563 59.636719 9.144532 86.347656 23.175782l-12.671874 21.949218c-1.550782 2.640626-1.5625 5.910157-.039063 8.5625 1.527344 2.65625 4.355469 4.292969 7.417969 4.285157 3.0625-.007813 5.886718-1.652344 7.398437-4.316407l12.65625-21.914062c25.429688 16.199219 47 37.769531 63.199219 63.199219l-21.914062 12.65625c-2.664063 1.511719-4.308594 4.335937-4.316407 7.398437-.007812 3.0625 1.628907 5.890625 4.285157 7.417969 2.652343 1.523437 5.921874 1.511719 8.5625-.039063l21.949218-12.671874c14.035156 26.707031 21.953125 56.203124 23.175782 86.347656h-25.386719c-4.710938 0-8.53125 3.824218-8.53125 8.535156s3.820312 8.535156 8.53125 8.535156h25.386719c-1.222657 30.144532-9.140626 59.640625-23.175782 86.347656l-21.949218-12.671874c-2.640626-1.550782-5.910157-1.5625-8.5625-.039063-2.65625 1.527344-4.292969 4.355469-4.285157 7.417969.007813 3.0625 1.652344 5.886718 4.316407 7.398437l21.914062 12.65625c-16.199219 25.429688-37.769531 47-63.199219 63.199219l-12.65625-21.914062c-1.511719-2.664063-4.335937-4.308594-7.398437-4.316407-3.0625-.007812-5.890625 1.628907-7.417969 4.285157-1.523437 2.652343-1.511719 5.921874.039063 8.5625l12.671874 21.949218c-26.710937 14.03125-56.203124 21.949219-86.347656 23.175782v-25.386719c0-4.710938-3.824218-8.53125-8.535156-8.53125s-8.535156 3.820312-8.535156 8.53125v25.386719c-30.144532-1.226563-59.636719-9.144532-86.347656-23.175782l12.671874-21.949218c1.550782-2.640626 1.5625-5.910157.039063-8.5625-1.527344-2.65625-4.355469-4.292969-7.417969-4.285157-3.0625.007813-5.886718 1.652344-7.398437 4.316407l-12.65625 21.914062c-25.429688-16.199219-47-37.769531-63.199219-63.199219l21.914062-12.65625c2.664063-1.511719 4.308594-4.335937 4.316407-7.398437.007812-3.0625-1.628907-5.890625-4.285157-7.417969-2.652343-1.523437-5.921874-1.511719-8.5625.039063l-21.949218 12.671874c-14.035156-26.707031-21.953125-56.203124-23.175782-86.347656h25.386719c4.710938 0 8.53125-3.824218 8.53125-8.535156s-3.820312-8.535156-8.53125-8.535156h-25.386719c1.222657-30.144532 9.140626-59.640625 23.175782-86.347656l21.949218 12.671874c2.640626 1.550782 5.910157 1.5625 8.5625.039063 2.65625-1.527344 4.292969-4.355469 4.285157-7.417969-.007813-3.0625-1.652344-5.886718-4.316407-7.398437l-21.914062-12.65625c16.199219-25.429688 37.769531-47 63.199219-63.199219zm0 0"/><path d="m200.710938 357.359375c1.988281 1.082031 4.328124 1.332031 6.5.691406 2.171874-.640625 4-2.117187 5.082031-4.105469l35.421875-64.957031c2.703125.726563 5.488281 1.109375 8.285156 1.144531 17.167969.023438 31.667969-12.734374 33.835938-29.765624 2.167968-17.027344-8.675782-33.011719-25.300782-37.289063v-103.613281c0-4.710938-3.824218-8.53125-8.535156-8.53125s-8.535156 3.820312-8.535156 8.53125v103.613281c-12.050782 3.046875-21.472656 12.445313-24.546875 24.492187-3.074219 12.046876.691406 24.8125 9.8125 33.261719l-35.421875 64.945313c-1.085938 1.988281-1.335938 4.324218-.695313 6.496094.636719 2.171874 2.113281 4 4.097657 5.085937zm55.289062-118.425781c9.425781 0 17.066406 7.640625 17.066406 17.066406s-7.640625 17.066406-17.066406 17.066406-17.066406-7.640625-17.066406-17.066406 7.640625-17.066406 17.066406-17.066406zm0 0"/></g></svg>