<svg height="512" viewBox="0 0 60 60" width="512" xmlns="http://www.w3.org/2000/svg"><g id="007---Automated-Sprinklers" fill="none" fill-rule="evenodd"><g id="Layer_3" transform="translate(1 1)"><g fill-rule="nonzero"><rect id="Rectangle-path" fill="#00bcd4" height="5" rx="2" width="58"/><path id="Shape" d="m56 0h-3c1.1045695 0 2 .8954305 2 2v1c0 1.1045695-.8954305 2-2 2h3c1.1045695 0 2-.8954305 2-2v-1c0-1.1045695-.8954305-2-2-2z" fill="#00838f"/><path id="Shape" d="m18 5h22v1c0 1.32608245-.5267842 2.59785201-1.4644661 3.53553391-.9376819.93768189-2.2094515 1.46446609-3.5355339 1.46446609h-12c-2.7614237 0-5-2.23857625-5-5z" fill="#7f8e94"/><path id="Shape" d="m37 5v1c0 1.32608245-.5267842 2.59785201-1.4644661 3.53553391-.9376819.93768189-2.2094515 1.46446609-3.5355339 1.46446609h3c1.3260824 0 2.597852-.5267842 3.5355339-1.46446609.9376819-.9376819 1.4644661-2.20945146 1.4644661-3.53553391v-1z" fill="#545c60"/><path id="Shape" d="m25 11h8v5.3c-.0003545.4545614-.1555445.8954421-.44 1.25l-3.56 4.45-3.56-4.45c-.2844555-.3545579-.4396455-.7954386-.44-1.25z" fill="#9e9e9e"/><path id="Shape" d="m30 11v5.3c-.0003545.4545614-.1555445.8954421-.44 1.25l-2.06 2.58 1.5 1.87 3.56-4.45c.2844555-.3545579.4396455-.7954386.44-1.25v-5.3z" fill="#707070"/><rect id="Rectangle-path" fill="#7f8e94" height="4" rx="1" width="10" x="24" y="22"/><path id="Shape" d="m33 22h-3c.5522847 0 1 .4477153 1 1v2c0 .5522847-.4477153 1-1 1h3c.5522847 0 1-.4477153 1-1v-2c0-.5522847-.4477153-1-1-1z" fill="#545c60"/></g><path id="Shape" d="m37.26 53.26c-.8803311 1.7864067-2.3646914 3.2034572-4.19 4-4.0759041 1.7079381-8.7894414.2296782-11.16-3.5-1.219246-2.1562464-1.219246-4.7937536 0-6.95 1-1.74 2.34-3.27 3.27-5 .6811833-1.2267652 1.0616003-2.5976374 1.11-4 .0147214-.7438937-.0659353-1.4866079-.24-2.21-.11-.42-.33-1.81-.73-2.06 1.7020205 1.0830738 3.3049301 2.3145367 4.79 3.68.43.46 1.81 2.17.92 4.05-.65 1.39-1.43 4.49 1.1 4.65 1.79.12 2.92-2.44 2.47-3.85 2.66 3.32 4.49 7.35 2.66 11.19z" fill="#ff9801"/><path id="Shape" d="m26.2 36.39c.31.26.62.53.92.81.43.46 1.81 2.17.92 4.05-.65 1.39-1.43 4.49 1.1 4.65.6124167.0241494 1.2020957-.2338352 1.6-.7-.7-1-.17-2.94.3-3.95.89-1.88-.49-3.59-.92-4.05-1.4850699-1.3654633-3.0879795-2.5969262-4.79-3.68.4.25.62 1.64.73 2.06s.1.54.14.81z" fill="#f57c00"/><path id="Shape" d="m34.68 42c.2471909 1.1437014-.0901033 2.3354743-.9 3.18 1.29 2.57 1.79 5.34.52 8-1.178883 2.444901-3.4725754 4.164238-6.15 4.61 1.6876058.2970311 3.4252043.0954696 5-.58 1.8253086-.7965428 3.3096689-2.2135933 4.19-4 1.75-3.79-.08-7.82-2.66-11.21z" fill="#f57c00"/><path id="Shape" d="m25.93 50.5c-.95 2.16-1.51 5.72 1.07 7 1.4354003.6031 3.0490302.624615 4.5.06l.3-.12c.9707418-.4206743 1.783027-1.1384263 2.32-2.05 1.18-2.19-1.1-3.53-2.7-4.52-.8736763-.4744663-1.6504735-1.1087942-2.29-1.87-.2588644-.3726005-.4266951-.8007402-.49-1.25-.05-.29-.23-1 0-1.25-1.1215699 1.1716723-2.0377249 2.5239305-2.71 4z" fill="#ffdc00"/><path id="Shape" d="m31.42 50.85c-.8719797-.4685278-1.6486603-1.0959772-2.29-1.85-.2588644-.3726005-.4266951-.8007402-.49-1.25-.05-.29-.23-1 0-1.25-.8288987.8757109-1.5567964 1.8417688-2.17 2.88.5845977.5584165 1.2362456 1.042114 1.94 1.44 1.6 1 3.88 2.33 2.7 4.52-.536973.9115737-1.3492582 1.6293257-2.32 2.05l-.3.12c-.2419294.0884159-.4890614.1618876-.74.22 1.2404213.3044681 2.5438296.227797 3.74-.22l.3-.12c.9707418-.4206743 1.783027-1.1384263 2.32-2.05 1.19-2.16-1.11-3.5-2.69-4.49z" fill="#fec108"/></g><g id="Layer_2" fill="#000" fill-rule="nonzero"><path id="Shape" d="m57 0h-54c-1.65685425 0-3 1.34314575-3 3v1c0 1.65685425 1.34314575 3 3 3h15c0 3.3137085 2.6862915 6 6 6h1v4.3c.0016663.6801263.2343871 1.3395019.66 1.87l2.26 2.83h-1.92c-1.1045695 0-2 .8954305-2 2v2c0 1.1045695.8954305 2 2 2h8c1.1045695 0 2-.8954305 2-2v-2c0-1.1045695-.8954305-2-2-2h-1.92l2.26-2.83c.4256129-.5304981.6583337-1.1898737.66-1.87v-4.3h1c3.3137085 0 6-2.6862915 6-6h15c1.6568542 0 3-1.34314575 3-3v-1c0-1.65685425-1.3431458-3-3-3zm-23 26h-8v-2h8zm-1-8.7c0 .47 0 .33-3 4.1-3-3.79-3-3.63-3-4.1v-4.3h2v4c0 .5522847.4477153 1 1 1s1-.4477153 1-1v-4h2zm3-6.3h-12c-2.209139 0-4-1.790861-4-4h20c0 2.209139-1.790861 4-4 4zm22-7c0 .55228475-.4477153 1-1 1h-54c-.55228475 0-1-.44771525-1-1v-1c0-.55228475.44771525-1 1-1h54c.5522847 0 1 .44771525 1 1z"/><path id="Shape" d="m22.05 47.36c-1.4060835 2.4599156-1.4060835 5.4800844 0 7.94 3.72 6.27 13.75 6.43 17.11-.6 0-.38 3.15-4.7-2.68-12.27-.2595738-.4942949-.8707051-.6845738-1.365-.425s-.6845738.8707051-.425 1.365c.28.88-.53 2.64-1.45 2.55-.51 0-.62-.22-.67-.3-.33-.56 0-1.95.41-2.92 1.15-2.45-.55-4.57-1.1-5.16-1.5475848-1.4339511-3.2209912-2.7258208-5-3.86-.4419375-.2783756-1.023673-.1697525-1.3353767.2493448-.3117037.4190974-.2483726 1.0074887.1453767 1.3506552.3847838 1.1280063.5938922 2.3084568.62 3.5-.05 3.4-2.71 5.78-4.26 8.58zm12.19 8.53c-1 1.87-4 2.56-5.8 1.7-2-1-1.27-4.15-.6-5.69.3258763-.6685016.7142738-1.3046699 1.16-1.9 1.14 2.72 6.49 3.58 5.24 5.89zm-6.07-18.89c.76.58 1.52 1.21 2.25 1.87.824878.7615567 1.1194539 1.9398603.75 3-1.28 2.7-1.06 5.88 1.93 6.07 1.4260872.0121996 2.7063886-.8720085 3.2-2.21 1.92 3.22 2.51 6.58.15 9.51 0-3-4.36-4.23-5.51-5.78-.1683297-.247839-.274647-.5324949-.31-.83 0-.21-.09-.46-.1-.61.2442331-.4451064.1161633-1.0025884-.2978391-1.2964789-.4140023-.2938905-.9825274-.2309051-1.3221609.1464789-2.29 2.47-4.2 5.79-3.71 9.14-2.285178-1.8626331-2.8785949-5.109471-1.4-7.66 1.66-3.02 5.25-6.09 4.37-11.35z"/><path id="Shape" d="m19.18 27c-.5522847 0-1 .4477153-1 1s.4477153 1 1 1 1-.4477153 1-1-.4477153-1-1-1z"/><path id="Shape" d="m3.65 36.41c0 .5522847.44771525 1 1 1s1-.4477153 1-1-.44771525-1-1-1-1 .4477153-1 1z"/><path id="Shape" d="m11.91 31.22c-.5522847 0-1 .4477153-1 1s.4477153 1 1 1 1-.4477153 1-1-.4477153-1-1-1z"/><path id="Shape" d="m15.54 29.12c-.5522847 0-1 .4477153-1 1s.4477153 1 1 1 1-.4477153 1-1-.4477153-1-1-1z"/><path id="Shape" d="m7.28 34.31c0 .5522847.44771525 1 1 1s1-.4477153 1-1-.44771525-1-1-1-1 .4477153-1 1z"/><path id="Shape" d="m1 39.51c.55228475 0 1-.4477153 1-1s-.44771525-1-1-1-1 .4477153-1 1 .44771525 1 1 1z"/><path id="Shape" d="m21.17 29.61c-.5522847 0-1 .4477153-1 1s.4477153 1 1 1 1-.4477153 1-1-.4477153-1-1-1z"/><path id="Shape" d="m5.41 45.37c-.55228475 0-1 .4477153-1 1s.44771525 1 1 1 1-.4477153 1-1-.44771525-1-1-1z"/><path id="Shape" d="m8.05 44.74c.55228475 0 1-.4477153 1-1s-.44771525-1-1-1-1 .4477153-1 1 .44771525 1 1 1z"/><path id="Shape" d="m12.29 38.49c0 .5522847.4477153 1 1 1s1-.4477153 1-1-.4477153-1-1-1-1 .4477153-1 1z"/><path id="Shape" d="m18.55 34.24c.5522847 0 1-.4477153 1-1s-.4477153-1-1-1-1 .4477153-1 1 .4477153 1 1 1z"/><path id="Shape" d="m15.93 36.87c.5522847 0 1-.4477153 1-1s-.4477153-1-1-1-1 .4477153-1 1 .4477153 1 1 1z"/><path id="Shape" d="m10.66 40.12c-.5522847 0-1 .4477153-1 1s.4477153 1 1 1 1-.4477153 1-1-.4477153-1-1-1z"/><path id="Shape" d="m2.79 48c-.55228475 0-1 .4477153-1 1s.44771525 1 1 1 1-.4477153 1-1-.44771525-1-1-1z"/><path id="Shape" d="m16.51 21.77c0 .5522847.4477153 1 1 1s1-.4477153 1-1-.4477153-1-1-1-1 .4477153-1 1z"/><path id="Shape" d="m9.27 22.77c.55228475 0 1-.4477153 1-1s-.44771525-1-1-1-1 .4477153-1 1 .44771525 1 1 1z"/><path id="Shape" d="m5.14 22.77c.55228475 0 1-.4477153 1-1s-.44771525-1-1-1-1 .4477153-1 1 .44771525 1 1 1z"/><path id="Shape" d="m12.39 21.77c0 .5522847.4477153 1 1 1s1-.4477153 1-1-.4477153-1-1-1-1 .4477153-1 1z"/><path id="Shape" d="m1 22.77c.55228475 0 1-.4477153 1-1s-.44771525-1-1-1-1 .4477153-1 1 .44771525 1 1 1z"/><path id="Shape" d="m19 25c0-.5522847-.4477153-1-1-1s-1 .4477153-1 1 .4477153 1 1 1 1-.4477153 1-1z"/><path id="Shape" d="m14.72 26.15c0-.5522847-.4477153-1-1-1s-1 .4477153-1 1 .4477153 1 1 1 1-.4477153 1-1z"/><path id="Shape" d="m5.24 27.42c-.55228475 0-1 .4477153-1 1s.44771525 1 1 1 1-.4477153 1-1-.44771525-1-1-1z"/><path id="Shape" d="m10.48 27.28c0-.5522847-.4477153-1-1-1-.55228475 0-1 .4477153-1 1s.44771525 1 1 1c.5522847 0 1-.4477153 1-1z"/><path id="Shape" d="m1 30.55c.55228475 0 1-.4477153 1-1s-.44771525-1-1-1-1 .4477153-1 1 .44771525 1 1 1z"/><path id="Shape" d="m17.94 17.54c-.5522847 0-1 .4477153-1 1s.4477153 1 1 1 1-.4477153 1-1-.4477153-1-1-1z"/><path id="Shape" d="m13.71 16.41c-.5522847 0-1 .4477153-1 1s.4477153 1 1 1 1-.4477153 1-1-.4477153-1-1-1z"/><path id="Shape" d="m5.24 14.14c-.55228475 0-1 .4477153-1 1s.44771525 1 1 1 1-.4477153 1-1-.44771525-1-1-1z"/><path id="Shape" d="m9.47 15.27c-.55228475 0-1 .4477153-1 1s.44771525 1 1 1c.5522847 0 1-.4477153 1-1s-.4477153-1-1-1z"/><path id="Shape" d="m1 15c.55228475 0 1-.4477153 1-1s-.44771525-1-1-1-1 .4477153-1 1 .44771525 1 1 1z"/><path id="Shape" d="m10.76 54.12c-.5522847 0-1 .4477153-1 1s.4477153 1 1 1 1-.4477153 1-1-.4477153-1-1-1z"/><path id="Shape" d="m14.48 49.68c.5522847 0 1-.4477153 1-1s-.4477153-1-1-1-1 .4477153-1 1 .4477153 1 1 1z"/><path id="Shape" d="m12.63 52.9c.5522847 0 1-.4477153 1-1s-.4477153-1-1-1-1 .4477153-1 1 .4477153 1 1 1z"/><path id="Shape" d="m16.34 46.47c.5522847 0 1-.4477153 1-1s-.4477153-1-1-1-1 .4477153-1 1 .4477153 1 1 1z"/><path id="Shape" d="m18.2 43.25c.5522847 0 1-.4477153 1-1s-.4477153-1-1-1-1 .4477153-1 1 .4477153 1 1 1z"/><path id="Shape" d="m21.9 34.82c-.5522847 0-1 .4477153-1 1s.4477153 1 1 1 1-.4477153 1-1-.4477153-1-1-1z"/><path id="Shape" d="m20.05 40c.5522847 0 1-.4477153 1-1s-.4477153-1-1-1-1 .4477153-1 1 .4477153 1 1 1z"/><path id="Shape" d="m23.76 31.61c-.5522847 0-1 .4477153-1 1s.4477153 1 1 1 1-.4477153 1-1-.4477153-1-1-1z"/><path id="Shape" d="m40.83 27c-.5522847 0-1 .4477153-1 1s.4477153 1 1 1 1-.4477153 1-1-.4477153-1-1-1z"/><path id="Shape" d="m55.36 35.41c-.5522847 0-1 .4477153-1 1s.4477153 1 1 1 1-.4477153 1-1-.4477153-1-1-1z"/><path id="Shape" d="m48.1 31.22c-.5522847 0-1 .4477153-1 1s.4477153 1 1 1 1-.4477153 1-1-.4477153-1-1-1z"/><path id="Shape" d="m44.46 29.12c-.5522847 0-1 .4477153-1 1s.4477153 1 1 1 1-.4477153 1-1-.4477153-1-1-1z"/><path id="Shape" d="m51.73 33.31c-.5522847 0-1 .4477153-1 1s.4477153 1 1 1 1-.4477153 1-1-.4477153-1-1-1z"/><path id="Shape" d="m59 37.51c-.5522847 0-1 .4477153-1 1s.4477153 1 1 1 1-.4477153 1-1-.4477153-1-1-1z"/><path id="Shape" d="m38.83 29.61c-.5522847 0-1 .4477153-1 1s.4477153 1 1 1 1-.4477153 1-1-.4477153-1-1-1z"/><path id="Shape" d="m54.6 47.37c.5522847 0 1-.4477153 1-1s-.4477153-1-1-1-1 .4477153-1 1 .4477153 1 1 1z"/><path id="Shape" d="m52 42.74c-.5522847 0-1 .4477153-1 1s.4477153 1 1 1 1-.4477153 1-1-.4477153-1-1-1z"/><path id="Shape" d="m47.72 38.49c0-.5522847-.4477153-1-1-1s-1 .4477153-1 1 .4477153 1 1 1 1-.4477153 1-1z"/><path id="Shape" d="m41.46 34.24c.5522847 0 1-.4477153 1-1s-.4477153-1-1-1-1 .4477153-1 1 .4477153 1 1 1z"/><path id="Shape" d="m45.09 35.87c0-.5522847-.4477153-1-1-1s-1 .4477153-1 1 .4477153 1 1 1 1-.4477153 1-1z"/><path id="Shape" d="m49.34 40.12c-.5522847 0-1 .4477153-1 1s.4477153 1 1 1 1-.4477153 1-1-.4477153-1-1-1z"/><path id="Shape" d="m57.22 50c.5522847 0 1-.4477153 1-1s-.4477153-1-1-1-1 .4477153-1 1 .4477153 1 1 1z"/><path id="Shape" d="m42.5 20.77c-.5522847 0-1 .4477153-1 1s.4477153 1 1 1 1-.4477153 1-1-.4477153-1-1-1z"/><path id="Shape" d="m50.75 20.77c-.5522847 0-1 .4477153-1 1s.4477153 1 1 1 1-.4477153 1-1-.4477153-1-1-1z"/><path id="Shape" d="m54.87 20.77c-.5522847 0-1 .4477153-1 1s.4477153 1 1 1 1-.4477153 1-1-.4477153-1-1-1z"/><path id="Shape" d="m46.62 20.77c-.5522847 0-1 .4477153-1 1s.4477153 1 1 1 1-.4477153 1-1-.4477153-1-1-1z"/><path id="Shape" d="m59 20.77c-.5522847 0-1 .4477153-1 1s.4477153 1 1 1 1-.4477153 1-1-.4477153-1-1-1z"/><path id="Shape" d="m42.07 26c.5522847 0 1-.4477153 1-1s-.4477153-1-1-1-1 .4477153-1 1 .4477153 1 1 1z"/><path id="Shape" d="m46.3 27.15c.5522847 0 1-.4477153 1-1s-.4477153-1-1-1-1 .4477153-1 1 .4477153 1 1 1z"/><path id="Shape" d="m54.77 29.42c.5522847 0 1-.4477153 1-1s-.4477153-1-1-1-1 .4477153-1 1 .4477153 1 1 1z"/><path id="Shape" d="m50.53 28.28c.5522847 0 1-.4477153 1-1s-.4477153-1-1-1-1 .4477153-1 1 .4477153 1 1 1z"/><path id="Shape" d="m59 28.55c-.5522847 0-1 .4477153-1 1s.4477153 1 1 1 1-.4477153 1-1-.4477153-1-1-1z"/><path id="Shape" d="m42.07 17.54c-.5522847 0-1 .4477153-1 1s.4477153 1 1 1 1-.4477153 1-1-.4477153-1-1-1z"/><path id="Shape" d="m46.3 16.41c-.5522847 0-1 .4477153-1 1s.4477153 1 1 1 1-.4477153 1-1-.4477153-1-1-1z"/><path id="Shape" d="m54.77 14.14c-.5522847 0-1 .4477153-1 1s.4477153 1 1 1 1-.4477153 1-1-.4477153-1-1-1z"/><path id="Shape" d="m50.53 15.27c-.5522847 0-1 .4477153-1 1s.4477153 1 1 1 1-.4477153 1-1-.4477153-1-1-1z"/><path id="Shape" d="m59 13c-.5522847 0-1 .4477153-1 1s.4477153 1 1 1 1-.4477153 1-1-.4477153-1-1-1z"/><path id="Shape" d="m49.25 56.12c.5522847 0 1-.4477153 1-1s-.4477153-1-1-1-1 .4477153-1 1 .4477153 1 1 1z"/><path id="Shape" d="m45.53 49.68c.5522847 0 1-.4477153 1-1s-.4477153-1-1-1-1 .4477153-1 1 .4477153 1 1 1z"/><path id="Shape" d="m47.39 52.9c.5522847 0 1-.4477153 1-1s-.4477153-1-1-1-1 .4477153-1 1 .4477153 1 1 1z"/><path id="Shape" d="m43.67 46.47c.5522847 0 1-.4477153 1-1s-.4477153-1-1-1-1 .4477153-1 1 .4477153 1 1 1z"/><path id="Shape" d="m41.82 43.25c.5522847 0 1-.4477153 1-1s-.4477153-1-1-1-1 .4477153-1 1 .4477153 1 1 1z"/><path id="Shape" d="m37.1 35.82c0 .5522847.4477153 1 1 1s1-.4477153 1-1-.4477153-1-1-1-1 .4477153-1 1z"/><path id="Shape" d="m40 38c-.5522847 0-1 .4477153-1 1s.4477153 1 1 1 1-.4477153 1-1-.4477153-1-1-1z"/><path id="Shape" d="m36.25 31.61c-.5522847 0-1 .4477153-1 1s.4477153 1 1 1 1-.4477153 1-1-.4477153-1-1-1z"/></g></g></svg>