<svg height="512" viewBox="0 0 60 60" width="512" xmlns="http://www.w3.org/2000/svg"><g id="007---Automated-Sprinklers" fill="none" fill-rule="evenodd"><g id="Layer_3" transform="translate(1 1)"><g fill-rule="nonzero"><rect id="Rectangle-path" fill="#e8edfc" height="5" rx="2" width="58"/><path id="Shape" d="m56 0h-3c1.1045695 0 2 .8954305 2 2v1c0 1.1045695-.8954305 2-2 2h3c1.1045695 0 2-.8954305 2-2v-1c0-1.1045695-.8954305-2-2-2z" fill="#cad9fc"/><path id="Shape" d="m18 5h22v1c0 1.32608245-.5267842 2.59785201-1.4644661 3.53553391-.9376819.93768189-2.2094515 1.46446609-3.5355339 1.46446609h-12c-2.7614237 0-5-2.23857625-5-5z" fill="#a4c2f7"/><path id="Shape" d="m37 5v1c0 1.32608245-.5267842 2.59785201-1.4644661 3.53553391-.9376819.93768189-2.2094515 1.46446609-3.5355339 1.46446609h3c1.3260824 0 2.597852-.5267842 3.5355339-1.46446609.9376819-.9376819 1.4644661-2.20945146 1.4644661-3.53553391v-1z" fill="#7facfa"/><path id="Shape" d="m25 11h8v5.3c-.0003545.4545614-.1555445.8954421-.44 1.25l-3.56 4.45-3.56-4.45c-.2844555-.3545579-.4396455-.7954386-.44-1.25z" fill="#e8edfc"/><path id="Shape" d="m30 11v5.3c-.0003545.4545614-.1555445.8954421-.44 1.25l-2.06 2.58 1.5 1.87 3.56-4.45c.2844555-.3545579.4396455-.7954386.44-1.25v-5.3z" fill="#cad9fc"/><rect id="Rectangle-path" fill="#e8edfc" height="4" rx="1" width="10" x="24" y="22"/><path id="Shape" d="m33 22h-3c.5522847 0 1 .4477153 1 1v2c0 .5522847-.4477153 1-1 1h3c.5522847 0 1-.4477153 1-1v-2c0-.5522847-.4477153-1-1-1z" fill="#cad9fc"/></g><path id="Shape" d="m37.26 53.26c-.8803311 1.7864067-2.3646914 3.2034572-4.19 4-4.0759041 1.7079381-8.7894414.2296782-11.16-3.5-1.219246-2.1562464-1.219246-4.7937536 0-6.95 1-1.74 2.34-3.27 3.27-5 .6811833-1.2267652 1.0616003-2.5976374 1.11-4 .0147214-.7438937-.0659353-1.4866079-.24-2.21-.11-.42-.33-1.81-.73-2.06 1.7020205 1.0830738 3.3049301 2.3145367 4.79 3.68.43.46 1.81 2.17.92 4.05-.65 1.39-1.43 4.49 1.1 4.65 1.79.12 2.92-2.44 2.47-3.85 2.66 3.32 4.49 7.35 2.66 11.19z" fill="#e8edfc"/><path id="Shape" d="m26.2 36.39c.31.26.62.53.92.81.43.46 1.81 2.17.92 4.05-.65 1.39-1.43 4.49 1.1 4.65.6124167.0241494 1.2020957-.2338352 1.6-.7-.7-1-.17-2.94.3-3.95.89-1.88-.49-3.59-.92-4.05-1.4850699-1.3654633-3.0879795-2.5969262-4.79-3.68.4.25.62 1.64.73 2.06s.1.54.14.81z" fill="#cad9fc"/><path id="Shape" d="m34.68 42c.2471909 1.1437014-.0901033 2.3354743-.9 3.18 1.29 2.57 1.79 5.34.52 8-1.178883 2.444901-3.4725754 4.164238-6.15 4.61 1.6876058.2970311 3.4252043.0954696 5-.58 1.8253086-.7965428 3.3096689-2.2135933 4.19-4 1.75-3.79-.08-7.82-2.66-11.21z" fill="#cad9fc"/><path id="Shape" d="m25.93 50.5c-.95 2.16-1.51 5.72 1.07 7 1.4354003.6031 3.0490302.624615 4.5.06l.3-.12c.9707418-.4206743 1.783027-1.1384263 2.32-2.05 1.18-2.19-1.1-3.53-2.7-4.52-.8736763-.4744663-1.6504735-1.1087942-2.29-1.87-.2588644-.3726005-.4266951-.8007402-.49-1.25-.05-.29-.23-1 0-1.25-1.1215699 1.1716723-2.0377249 2.5239305-2.71 4z" fill="#e8edfc"/><path id="Shape" d="m31.42 50.85c-.8719797-.4685278-1.6486603-1.0959772-2.29-1.85-.2588644-.3726005-.4266951-.8007402-.49-1.25-.05-.29-.23-1 0-1.25-.8288987.8757109-1.5567964 1.8417688-2.17 2.88.5845977.5584165 1.2362456 1.042114 1.94 1.44 1.6 1 3.88 2.33 2.7 4.52-.536973.9115737-1.3492582 1.6293257-2.32 2.05l-.3.12c-.2419294.0884159-.4890614.1618876-.74.22 1.2404213.3044681 2.5438296.227797 3.74-.22l.3-.12c.9707418-.4206743 1.783027-1.1384263 2.32-2.05 1.19-2.16-1.11-3.5-2.69-4.49z" fill="#cad9fc"/></g><g fill-rule="nonzero"><g id="Layer_4" fill="#fff" transform="translate(1 1)"><path id="Shape" d="m21.91 53.79c1.366818 2.2003399 3.6290068 3.6914111 6.19 4.08.9932495.1643227 2.0067505.1643227 3 0-2.5455267-.3946645-4.7917978-1.8812211-6.15-4.07-1.219246-2.1562464-1.219246-4.7937536 0-6.95 1-1.74 2.34-3.27 3.27-5 .6811833-1.2267652 1.0616003-2.5976374 1.11-4 .009869-.4650559-.0202418-.9300998-.09-1.39-1.2193991-1.0557939-2.5163811-2.0185022-3.88-2.88.4.25.62 1.64.73 2.06.0653679.2702977.1154474.5440653.15.82.0697582.4599002.099869.9249441.09 1.39-.0483997 1.4023626-.4288167 2.7732348-1.11 4-.93 1.77-2.3 3.3-3.27 5-1.2279162 2.146661-1.2430901 4.7793274-.04 6.94z"/><path id="Shape" d="m28 22h-3c-.5522847 0-1 .4477153-1 1v2c0 .5522847.4477153 1 1 1h3c-.5522847 0-1-.4477153-1-1v-2c0-.5522847.4477153-1 1-1z"/><path id="Shape" d="m2 5h3c-1.1045695 0-2-.8954305-2-2v-1c0-1.1045695.8954305-2 2-2h-3c-1.1045695 0-2 .8954305-2 2v1c0 1.1045695.8954305 2 2 2z"/><path id="Shape" d="m23 11h2v5.3c.0003545.4545614.1555445.8954421.44 1.25l2.06 2.58 1.5 1.87 1.5-1.87-2.06-2.58c-.2844555-.3545579-.4396455-.7954386-.44-1.25v-5.3h-2c-2.7614237 0-5-2.23857625-5-5v-1h-3v1c0 2.76142375 2.2385763 5 5 5z"/></g><g id="Layer_2"><path id="Rectangle-path" d="m3 0h8v2h-8z" fill="#fff"/><g fill="#428dff"><path id="Shape" d="m7 2c-.55228475 0-1-.44771525-1-1s.44771525-1 1-1 1 .44771525 1 1-.44771525 1-1 1z"/><path id="Shape" d="m57 0h-46c-.5522847 0-1 .44771525-1 1s.4477153 1 1 1h46c.5522847 0 1 .44771525 1 1v1c0 .55228475-.4477153 1-1 1h-54c-.55228475 0-1-.44771525-1-1v-1c0-.55228475.44771525-1 1-1s1-.44771525 1-1-.44771525-1-1-1c-1.65685425 0-3 1.34314575-3 3v1c0 1.65685425 1.34314575 3 3 3h15c0 3.3137085 2.6862915 6 6 6h1v4.3c.0016663.6801263.2343871 1.3395019.66 1.87l2.26 2.83h-1.92c-1.1045695 0-2 .8954305-2 2v2c0 1.1045695.8954305 2 2 2h8c1.1045695 0 2-.8954305 2-2v-2c0-1.1045695-.8954305-2-2-2h-1.92l2.26-2.83c.4256129-.5304981.6583337-1.1898737.66-1.87v-4.3h1c3.3137085 0 6-2.6862915 6-6h15c1.6568542 0 3-1.34314575 3-3v-1c0-1.65685425-1.3431458-3-3-3zm-23 26h-8v-2h8zm-1-8.7c-.0013084.2255642-.0788394.4440607-.22.62l-2.78 3.48-2.78-3.48c-.1411606-.1759393-.2186916-.3944358-.22-.62v-4.3h2v4c0 .5522847.4477153 1 1 1s1-.4477153 1-1v-4h2zm3-6.3h-12c-2.209139 0-4-1.790861-4-4h20c0 2.209139-1.790861 4-4 4z"/><path id="Shape" d="m23.66 44.89c-.5836726.7917196-1.1212306 1.6164204-1.61 2.47-1.4060835 2.4599156-1.4060835 5.4800844 0 7.94 1.8461287 2.954183 5.0965848 4.7347359 8.58 4.7 1.3205997.002471 2.6276239-.266422 3.84-.79 2.0459545-.903682 3.7069811-2.5009592 4.69-4.51 1.72-3.6.81-7.73-2.68-12.27-.3413133-.4002132-.9244812-.4896039-1.37-.21-.3857178.2428238-.5584371.7157457-.42 1.15.1092088.7098159-.0788886 1.4332674-.52 2-.207346.3138753-.5540223.5077159-.93.52-.51 0-.62-.22-.67-.3-.33-.56 0-1.95.41-2.92 1.15-2.45-.55-4.57-1.1-5.16l-.08-.09c-1.5358404-1.3913306-3.1848713-2.6523542-4.93-3.77-.4410784-.2561584-1.0042636-.1392969-1.3070093.2712057-.3027456.4105026-.2480178.9830748.1270093 1.3287943.1370102.4075851.2406845.8256266.31 1.25.0167351.1047133.0401157.2082558.07.31.4554371 1.876442.1726234 3.8561381-.79 5.53-.4806856.886261-1.021972 1.7382859-1.62 2.55zm8 7.68.34.22c2 1.25 2.8 2 2.2 3.1-.4269382.7221033-1.0758673 1.286847-1.85 1.61l-.25.1c-1.1863542.4814183-2.5136458.4814183-3.7 0-2-1-1.27-4.15-.6-5.69.3380367-.6735557.7398753-1.3131488 1.2-1.91.096419.2391847.2242048.4644913.38.67.6488311.7717095 1.4355444 1.4160005 2.32 1.9zm-4.62-9.31c.7507893-1.3668202 1.168762-2.8913927 1.22-4.45.0261996-.6048189-.0039303-1.2107636-.09-1.81.76.58 1.52 1.21 2.25 1.87.824878.7615567 1.1194539 1.9398603.75 3-.14.3-1.37 3-.32 4.79.4735738.7917801 1.3274049 1.2775151 2.25 1.28 1.0447612.0598805 2.0452234-.4289818 2.64-1.29.2226666-.2832515.4106676-.5921103.56-.92 1.82 3 2.17 5.78 1.05 8.12-.2405476.4992279-.5429198.9662249-.9 1.39 0-2-2.09-3.34-3.35-4.13l-.35-.21c-.6832767-.3698912-1.2959882-.8573523-1.81-1.44-.1683297-.247839-.274647-.5324949-.31-.83v-.16c0-.1-.06-.32-.07-.45.2122905-.399216.1302908-.8912143-.2-1.2-.1943558-.1828579-.4537357-.2804492-.7204246-.2710588-.2666889.0093905-.5185623.1249837-.6995754.3210588-1.2073522 1.2375707-2.2008599 2.6670053-2.94 4.23-.7019379 1.5318307-.9782855 3.2244594-.8 4.9-.568342-.4904674-1.0515444-1.071662-1.43-1.72-1.0488562-1.8410986-1.0488562-4.0989014 0-5.94.4657733-.8080387.9765783-1.5892699 1.53-2.34.6538388-.8725704 1.2485029-1.7879522 1.78-2.74z"/><path id="Shape" d="m19.19 29c-.5522847 0-1-.4477153-1-1s.4477153-1 1-1 1 .4477153 1 1-.4477153 1-1 1z"/><path id="Shape" d="m4.65 37.41c-.55228475 0-1-.4477153-1-1s.44771525-1 1-1 1 .4477153 1 1-.44771525 1-1 1z"/><path id="Shape" d="m11.92 33.22c-.5522847 0-1-.4477153-1-1s.4477153-1 1-1 1 .4477153 1 1-.4477153 1-1 1z"/><path id="Shape" d="m15.55 31.12c-.5522847 0-1-.4477153-1-1s.4477153-1 1-1 1 .4477153 1 1-.4477153 1-1 1z"/><path id="Shape" d="m8.29 35.31c-.55228475 0-1-.4477153-1-1s.44771525-1 1-1 1 .4477153 1 1-.44771525 1-1 1z"/><path id="Shape" d="m1 39.51c-.55228475 0-1-.4477153-1-1s.44771525-1 1-1 1 .4477153 1 1-.44771525 1-1 1z"/><path id="Shape" d="m59 39.51c-.5522847 0-1-.4477153-1-1s.4477153-1 1-1 1 .4477153 1 1-.4477153 1-1 1z"/><path id="Shape" d="m44.48 31.12c-.5522847 0-1-.4477153-1-1s.4477153-1 1-1 1 .4477153 1 1-.4477153 1-1 1z"/><path id="Shape" d="m48.11 33.22c-.5522847 0-1-.4477153-1-1s.4477153-1 1-1 1 .4477153 1 1-.4477153 1-1 1z"/><path id="Shape" d="m55.38 37.41c-.5522847 0-1-.4477153-1-1s.4477153-1 1-1 1 .4477153 1 1-.4477153 1-1 1z"/><path id="Shape" d="m51.75 35.31c-.5522847 0-1-.4477153-1-1s.4477153-1 1-1 1 .4477153 1 1-.4477153 1-1 1z"/><path id="Shape" d="m40.85 29c-.5522847 0-1-.4477153-1-1s.4477153-1 1-1 1 .4477153 1 1-.4477153 1-1 1z"/><path id="Shape" d="m21.18 31.61c-.5522847 0-1-.4477153-1-1s.4477153-1 1-1 1 .4477153 1 1-.4477153 1-1 1z"/><path id="Shape" d="m5.42 47.37c-.55228475 0-1-.4477153-1-1s.44771525-1 1-1 1 .4477153 1 1-.44771525 1-1 1z"/><path id="Shape" d="m8.05 44.74c-.55228475 0-1-.4477153-1-1s.44771525-1 1-1 1 .4477153 1 1-.44771525 1-1 1z"/><path id="Shape" d="m13.3 39.49c-.5522847 0-1-.4477153-1-1s.4477153-1 1-1 1 .4477153 1 1-.4477153 1-1 1z"/><path id="Shape" d="m18.55 34.24c-.5522847 0-1-.4477153-1-1s.4477153-1 1-1 1 .4477153 1 1-.4477153 1-1 1z"/><path id="Shape" d="m15.93 36.87c-.5522847 0-1-.4477153-1-1s.4477153-1 1-1 1 .4477153 1 1-.4477153 1-1 1z"/><path id="Shape" d="m10.67 42.12c-.5522847 0-1-.4477153-1-1s.4477153-1 1-1 1 .4477153 1 1-.4477153 1-1 1z"/><path id="Shape" d="m2.79 50c-.55228475 0-1-.4477153-1-1s.44771525-1 1-1 1 .4477153 1 1-.44771525 1-1 1z"/><path id="Shape" d="m17.52 22.77c-.5522847 0-1-.4477153-1-1s.4477153-1 1-1 1 .4477153 1 1-.4477153 1-1 1z"/><path id="Shape" d="m9.27 22.77c-.55228475 0-1-.4477153-1-1s.44771525-1 1-1 1 .4477153 1 1-.44771525 1-1 1z"/><path id="Shape" d="m5.14 22.77c-.55228475 0-1-.4477153-1-1s.44771525-1 1-1 1 .4477153 1 1-.44771525 1-1 1z"/><path id="Shape" d="m13.4 22.77c-.5522847 0-1-.4477153-1-1s.4477153-1 1-1 1 .4477153 1 1-.4477153 1-1 1z"/><path id="Shape" d="m1 22.77c-.55228475 0-1-.4477153-1-1s.44771525-1 1-1 1 .4477153 1 1-.44771525 1-1 1z"/><path id="Shape" d="m59 22.77c-.5522847 0-1-.4477153-1-1s.4477153-1 1-1 1 .4477153 1 1-.4477153 1-1 1z"/><path id="Shape" d="m46.64 22.77c-.5522847 0-1-.4477153-1-1s.4477153-1 1-1 1 .4477153 1 1-.4477153 1-1 1z"/><path id="Shape" d="m54.89 22.77c-.5522847 0-1-.4477153-1-1s.4477153-1 1-1 1 .4477153 1 1-.4477153 1-1 1z"/><path id="Shape" d="m50.77 22.77c-.5522847 0-1-.4477153-1-1s.4477153-1 1-1 1 .4477153 1 1-.4477153 1-1 1z"/><path id="Shape" d="m18 26c-.5522847 0-1-.4477153-1-1s.4477153-1 1-1 1 .4477153 1 1-.4477153 1-1 1z"/><path id="Shape" d="m13.72 27.15c-.5522847 0-1-.4477153-1-1s.4477153-1 1-1 1 .4477153 1 1-.4477153 1-1 1z"/><path id="Shape" d="m5.25 29.42c-.55228475 0-1-.4477153-1-1s.44771525-1 1-1 1 .4477153 1 1-.44771525 1-1 1z"/><path id="Shape" d="m9.48 28.28c-.55228475 0-1-.4477153-1-1s.44771525-1 1-1c.5522847 0 1 .4477153 1 1s-.4477153 1-1 1z"/><path id="Shape" d="m1 30.55c-.55228475 0-1-.4477153-1-1s.44771525-1 1-1 1 .4477153 1 1-.44771525 1-1 1z"/><path id="Shape" d="m59 15c-.5522847 0-1-.4477153-1-1s.4477153-1 1-1 1 .4477153 1 1-.4477153 1-1 1z"/><path id="Shape" d="m54.79 16.13c-.5522847 0-1-.4477153-1-1s.4477153-1 1-1 1 .4477153 1 1-.4477153 1-1 1z"/><path id="Shape" d="m50.55 17.27c-.5522847 0-1-.4477153-1-1s.4477153-1 1-1 1 .4477153 1 1-.4477153 1-1 1z"/><path id="Shape" d="m46.32 18.4c-.5522847 0-1-.4477153-1-1s.4477153-1 1-1 1 .4477153 1 1-.4477153 1-1 1z"/><path id="Shape" d="m42.09 19.54c-.5522847 0-1-.4477153-1-1s.4477153-1 1-1 1 .4477153 1 1-.4477153 1-1 1z"/><path id="Shape" d="m59 30.55c-.5522847 0-1-.4477153-1-1s.4477153-1 1-1 1 .4477153 1 1-.4477153 1-1 1z"/><path id="Shape" d="m46.32 27.15c-.5522847 0-1-.4477153-1-1s.4477153-1 1-1 1 .4477153 1 1-.4477153 1-1 1z"/><path id="Shape" d="m54.79 29.42c-.5522847 0-1-.4477153-1-1s.4477153-1 1-1 1 .4477153 1 1-.4477153 1-1 1z"/><path id="Shape" d="m50.55 28.28c-.5522847 0-1-.4477153-1-1s.4477153-1 1-1 1 .4477153 1 1-.4477153 1-1 1z"/><path id="Shape" d="m42.09 26c-.5522847 0-1-.4477153-1-1s.4477153-1 1-1 1 .4477153 1 1-.4477153 1-1 1z"/><path id="Shape" d="m18 19.54c-.5522847 0-1-.4477153-1-1s.4477153-1 1-1 1 .4477153 1 1-.4477153 1-1 1z"/><path id="Shape" d="m13.72 18.41c-.5522847 0-1-.4477153-1-1s.4477153-1 1-1 1 .4477153 1 1-.4477153 1-1 1z"/><path id="Shape" d="m5.25 16.14c-.55228475 0-1-.4477153-1-1s.44771525-1 1-1 1 .4477153 1 1-.44771525 1-1 1z"/><path id="Shape" d="m9.48 17.27c-.55228475 0-1-.4477153-1-1s.44771525-1 1-1c.5522847 0 1 .4477153 1 1s-.4477153 1-1 1z"/><path id="Shape" d="m1 15c-.55228475 0-1-.4477153-1-1s.44771525-1 1-1 1 .4477153 1 1-.44771525 1-1 1z"/><path id="Shape" d="m38.86 31.61c-.5522847 0-1-.4477153-1-1s.4477153-1 1-1 1 .4477153 1 1-.4477153 1-1 1z"/><path id="Shape" d="m46.73 39.49c-.5522847 0-1-.4477153-1-1s.4477153-1 1-1 1 .4477153 1 1-.4477153 1-1 1z"/><path id="Shape" d="m41.48 34.24c-.5522847 0-1-.4477153-1-1s.4477153-1 1-1 1 .4477153 1 1-.4477153 1-1 1z"/><path id="Shape" d="m44.11 36.86c-.5522847 0-1-.4477153-1-1s.4477153-1 1-1 1 .4477153 1 1-.4477153 1-1 1z"/><path id="Shape" d="m49.36 42.12c-.5522847 0-1-.4477153-1-1s.4477153-1 1-1 1 .4477153 1 1-.4477153 1-1 1z"/><path id="Shape" d="m54.61 47.37c-.5522847 0-1-.4477153-1-1s.4477153-1 1-1 1 .4477153 1 1-.4477153 1-1 1z"/><path id="Shape" d="m52 44.75c-.5522847 0-1-.4477153-1-1s.4477153-1 1-1 1 .4477153 1 1-.4477153 1-1 1z"/><path id="Shape" d="m57.24 50c-.5522847 0-1-.4477153-1-1s.4477153-1 1-1 1 .4477153 1 1-.4477153 1-1 1z"/><path id="Shape" d="m49.27 56.13c-.5522847 0-1-.4477153-1-1s.4477153-1 1-1 1 .4477153 1 1-.4477153 1-1 1z"/><path id="Shape" d="m41.84 43.25c-.5522847 0-1-.4477153-1-1s.4477153-1 1-1 1 .4477153 1 1-.4477153 1-1 1z"/><path id="Shape" d="m43.69 46.47c-.5522847 0-1-.4477153-1-1s.4477153-1 1-1 1 .4477153 1 1-.4477153 1-1 1z"/><path id="Shape" d="m40 40c-.5522847 0-1-.4477153-1-1s.4477153-1 1-1 1 .4477153 1 1-.4477153 1-1 1z"/><path id="Shape" d="m47.41 52.9c-.5522847 0-1-.4477153-1-1s.4477153-1 1-1 1 .4477153 1 1-.4477153 1-1 1z"/><path id="Shape" d="m38.13 36.82c-.5522847 0-1-.4477153-1-1s.4477153-1 1-1 1 .4477153 1 1-.4477153 1-1 1z"/><path id="Shape" d="m45.55 49.68c-.5522847 0-1-.4477153-1-1s.4477153-1 1-1 1 .4477153 1 1-.4477153 1-1 1z"/><path id="Shape" d="m36.27 33.6c-.5522847 0-1-.4477153-1-1s.4477153-1 1-1 1 .4477153 1 1-.4477153 1-1 1z"/><path id="Shape" d="m10.77 56.12c-.5522847 0-1-.4477153-1-1s.4477153-1 1-1 1 .4477153 1 1-.4477153 1-1 1z"/><path id="Shape" d="m14.48 49.68c-.5522847 0-1-.4477153-1-1s.4477153-1 1-1 1 .4477153 1 1-.4477153 1-1 1z"/><path id="Shape" d="m12.63 52.9c-.5522847 0-1-.4477153-1-1s.4477153-1 1-1 1 .4477153 1 1-.4477153 1-1 1z"/><path id="Shape" d="m16.34 46.47c-.5522847 0-1-.4477153-1-1s.4477153-1 1-1 1 .4477153 1 1-.4477153 1-1 1z"/><path id="Shape" d="m18.2 43.25c-.5522847 0-1-.4477153-1-1s.4477153-1 1-1 1 .4477153 1 1-.4477153 1-1 1z"/><path id="Shape" d="m21.91 36.82c-.5522847 0-1-.4477153-1-1s.4477153-1 1-1 1 .4477153 1 1-.4477153 1-1 1z"/><path id="Shape" d="m20.05 40c-.5522847 0-1-.4477153-1-1s.4477153-1 1-1 1 .4477153 1 1-.4477153 1-1 1z"/><path id="Shape" d="m23.77 33.61c-.5522847 0-1-.4477153-1-1s.4477153-1 1-1 1 .4477153 1 1-.4477153 1-1 1z"/></g></g></g></g></svg>