<?xml version="1.0" encoding="UTF-8"?>
<svg xmlns="http://www.w3.org/2000/svg" xmlns:xlink="http://www.w3.org/1999/xlink" width="512" height="512" viewBox="0 0 56 60" version="1.1"><!-- Generator: Sketch 51.3 (57544) - http://www.bohemiancoding.com/sketch --><title>003 - Moving Boxes</title><desc>Created with Sketch.</desc><defs/><g id="Page-1" stroke="none" stroke-width="1" fill="none" fill-rule="evenodd"><g id="003---Moving-Boxes" transform="translate(-1.000000, -1.000000)" fill-rule="nonzero"><path d="M22,49 C21.1345848,48.9992215 20.3678458,48.4419233 20.1,47.619 L6.817,6.828 L4.894,7.789 C3.90596258,8.28301871 2.70451871,7.88253742 2.2105,6.8945 C1.71648129,5.90646258 2.11696258,4.70501871 3.105,4.211 L7.105,2.211 C7.62616479,1.94924896 8.23562018,1.92802072 8.77373417,2.15287549 C9.31184816,2.37773027 9.72500927,2.82626612 9.905,3.381 L23.266,44.429 L52.33,34.115 C53.3710568,33.7455215 54.5145215,34.2899432 54.884,35.331 C55.2534785,36.3720568 54.7090568,37.5155215 53.668,37.885 L22.668,48.885 C22.4535283,48.9611757 22.227598,49.0000708 22,49 Z" id="Shape" fill="#FF9801"/><circle id="Oval" fill="#37474F" cx="25.999" cy="54" r="6"/><path d="M31,54 C31,56.7614237 28.7614237,59 26,59 C25.4920766,58.9984453 24.986978,58.9243642 24.5,58.78 C22.4160564,58.1199968 20.9998679,56.185961 20.9998679,54 C20.9998679,51.814039 22.4160564,49.8800032 24.5,49.22 C24.986978,49.0756358 25.4920766,49.0015547 26,49 C28.7614237,49 31,51.2385763 31,54 Z" id="Shape" fill="#37474F"/><ellipse id="Oval" fill="#607D8B" cx="24.5" cy="54" rx="3.5" ry="4.78"/><circle id="Oval" fill="#37474F" cx="25.999" cy="54" r="2"/><rect id="Rectangle-path" fill="#6D4122" transform="translate(35.171208, 29.633794) rotate(-19.342000) translate(-35.171208, -29.633794) " x="24.1712083" y="19.6337942" width="22" height="20" rx="1"/><rect id="Rectangle-path" fill="#91562D" transform="translate(33.858002, 30.095648) rotate(-19.342000) translate(-33.858002, -30.095648) " x="24.2070022" y="20.0956483" width="19.302" height="20" rx="1"/><path d="M35.529,26.29 L34.492,26.025 C34.1007086,25.9249854 33.6876668,26.0701615 33.445,26.393 L32.801,27.248 C32.5791857,27.5423714 32.213423,27.6908584 31.8491854,27.6344037 C31.4849479,27.5779489 31.1812959,27.3257065 31.059,26.978 L29.028,21.192 L34.689,19.2 L36.72,24.99 C36.8420703,25.3379019 36.7628034,25.7247502 36.513742,25.9966056 C36.2646807,26.268461 35.8862348,26.3812153 35.529,26.29 Z" id="Shape" fill="#FFDC00"/><rect id="Rectangle-path" fill="#624421" transform="translate(28.930740, 14.119212) rotate(-19.342000) translate(-28.930740, -14.119212) " x="21.5567404" y="7.41521173" width="14.748" height="13.408" rx="1"/><rect id="Rectangle-path" fill="#825A2C" transform="translate(27.381401, 14.662877) rotate(-19.342000) translate(-27.381401, -14.662877) " x="21.529401" y="7.95887704" width="11.704" height="13.408" rx="1"/><path d="M29.479,11.956 L28.365,11.671 C28.169511,11.6212131 27.9632527,11.6937781 27.842,11.855 L27.151,12.773 C27.0400928,12.9201857 26.8572115,12.9944292 26.6750927,12.9662018 C26.4929739,12.9379745 26.341148,12.8118533 26.28,12.638 L24.813,8.459 L28.613,7.127 L30.08,11.306 C30.1420976,11.4810892 30.1020008,11.6761726 29.97588,11.812576 C29.8497593,11.9489795 29.6584099,12.0042123 29.479,11.956 Z" id="Shape" fill="#FFDC00"/><path d="M22,50 C20.7009053,50.0002011 19.5492863,49.1642379 19.147,47.929 L6.226,8.241 L5.341,8.684 C3.85866773,9.42488999 2.05638999,8.82383227 1.3155,7.3415 C0.574610008,5.85916773 1.17566773,4.05688999 2.658,3.316 L6.658,1.316 C7.43917497,0.92554089 8.35171802,0.894866873 9.15734968,1.23198742 C9.96298135,1.56910797 10.5817188,2.24055389 10.852,3.071 L23.9,43.143 L52,33.173 C53.019266,32.7777272 54.1728578,32.9681996 55.0109592,33.6701468 C55.8490606,34.372094 56.2389724,35.4743747 56.0286576,36.5471801 C55.8183428,37.6199855 55.0411012,38.4934552 54,38.827 L23,49.827 C22.6790303,49.941496 22.3407798,50.0000133 22,50 Z M6.817,5.828 C6.94945837,5.82823408 7.08059021,5.85439251 7.203,5.905 C7.47158742,6.01734503 7.67787941,6.24116271 7.768,6.518 L21.048,47.31 C21.1314865,47.566471 21.3150347,47.7783426 21.5569884,47.8975307 C21.7989421,48.0167188 22.0787824,48.0331156 22.333,47.943 L53.333,36.943 C53.7145633,36.8078606 53.9770222,36.4560221 53.9978261,36.0517692 C54.01863,35.6475163 53.793675,35.2705942 53.428,35.097 C53.1888524,34.9835284 52.914471,34.9695036 52.665,35.058 L23.6,45.371 C23.3457824,45.4611156 23.0659421,45.4447188 22.8239884,45.3255307 C22.5820347,45.2063426 22.3984865,44.994471 22.315,44.738 L8.951,3.69 C8.86100464,3.41263306 8.65442408,3.18836513 8.38536708,3.07593775 C8.11631009,2.96351036 7.81158239,2.97412448 7.551,3.105 L3.551,5.105 C3.05670517,5.35352815 2.85747189,5.95570515 3.10600003,6.44999999 C3.35452816,6.94429483 3.95670515,7.14352812 4.451,6.895 L6.37,5.933 C6.50883891,5.86380281 6.66187272,5.82785527 6.817,5.828 Z" id="Shape" fill="#000000"/><path d="M26,61 C22.1340068,61 19,57.8659932 19,54 C19,50.1340068 22.1340068,47 26,47 C29.8659932,47 33,50.1340068 33,54 C32.9955914,57.8641657 29.8641657,60.9955914 26,61 Z M26,49 C23.2385763,49 21,51.2385763 21,54 C21,56.7614237 23.2385763,59 26,59 C28.7614237,59 31,56.7614237 31,54 C30.9966939,51.2399468 28.7600532,49.0033061 26,49 Z" id="Shape" fill="#000000"/><path d="M26,57 C24.3431458,57 23,55.6568542 23,54 C23,52.3431458 24.3431458,51 26,51 C27.6568542,51 29,52.3431458 29,54 C29,55.6568542 27.6568542,57 26,57 Z M26,53 C25.4477153,53 25,53.4477153 25,54 C25,54.5522847 25.4477153,55 26,55 C26.5522847,55 27,54.5522847 27,54 C27,53.4477153 26.5522847,53 26,53 Z" id="Shape" fill="#000000"/><path d="M27.933,43.579 C27.5081734,43.5791569 27.1296176,43.3108795 26.989,42.91 L20.365,24.039 C20.1825486,23.5182151 20.4564326,22.948071 20.977,22.765 L41.735,15.478 C41.9852313,15.390069 42.2601449,15.4051493 42.4992569,15.5199231 C42.7383689,15.6346968 42.9220902,15.8397613 43.01,16.09 L49.634,34.961 C49.8163578,35.482071 49.5419656,36.0523413 49.021,36.235 L28.264,43.522 C28.1578049,43.5600434 28.0458033,43.5793307 27.933,43.579 Z M22.583,24.32 L28.545,41.3 L47.416,34.68 L41.454,17.7 L22.583,24.32 Z" id="Shape" fill="#000000"/><path d="M31.506,29.606 C31.0810303,29.6083125 30.7017964,29.3396718 30.563,28.938 L27.913,21.389 C27.7305486,20.8682151 28.0044326,20.298071 28.525,20.115 L34.187,18.127 C34.708071,17.9446422 35.2783413,18.2190344 35.461,18.74 L38.111,26.288 C38.2332592,26.636108 38.1539069,27.0232543 37.9045583,27.295195 C37.6552096,27.5671356 37.27638,27.6796842 36.919,27.588 L34.073,26.86 L32.305,29.208 C32.1159394,29.458771 31.8200541,29.6061582 31.506,29.606 Z M30.131,21.67 L31.831,26.512 L32.876,25.124 C33.1189183,24.8015321 33.5319142,24.6567666 33.923,24.757 L35.605,25.187 L33.905,20.346 L30.131,21.67 Z" id="Shape" fill="#000000"/><path d="M24.119,23.6 C23.6942801,23.5995833 23.3161574,23.3309277 23.176,22.93 L18.735,10.28 C18.647069,10.0297687 18.6621493,9.75485506 18.7769231,9.51574308 C18.8916968,9.2766311 19.0967613,9.09290983 19.347,9.005 L33.263,4.12 C33.5132313,4.03206902 33.7881449,4.04714933 34.0272569,4.16192308 C34.2663689,4.27669683 34.4500902,4.48176129 34.538,4.732 L38.979,17.383 C39.0668833,17.6333605 39.0516634,17.9083846 38.9366913,18.147519 C38.8217192,18.3866535 38.6164217,18.5702912 38.366,18.658 L24.45,23.542 C24.3438136,23.5801888 24.2318446,23.5998088 24.119,23.6 Z M20.953,10.561 L24.731,21.324 L36.76,17.1 L32.982,6.338 L20.953,10.561 Z" id="Shape" fill="#000000"/><path d="M26.515,14.232 C26.4637915,14.2323201 26.4126361,14.2286423 26.362,14.221 C25.9974446,14.1641982 25.6937836,13.9112755 25.572,13.563 L23.8,8.5 C23.6175486,7.97921512 23.8914326,7.40907099 24.412,7.226 L28.2,5.9 C28.721071,5.71764217 29.2913413,5.99203437 29.474,6.513 L31.25,11.573 C31.3720703,11.9209019 31.2928034,12.3077502 31.043742,12.5796056 C30.7946807,12.851461 30.4162348,12.9642153 30.059,12.873 L28.359,12.44 L27.307,13.84 C27.1181883,14.0865548 26.8255459,14.231398 26.515,14.232 Z M26.015,8.785 L26.841,11.138 L27.17,10.7 C27.4129183,10.3775321 27.8259142,10.2327666 28.217,10.333 L28.749,10.468 L27.922,8.115 L26.015,8.785 Z" id="Shape" fill="#000000"/></g></g></svg>
