<?xml version="1.0" encoding="UTF-8"?>
<svg xmlns="http://www.w3.org/2000/svg" xmlns:xlink="http://www.w3.org/1999/xlink" width="512" height="512" viewBox="0 0 56 60" version="1.1"><!-- Generator: Sketch 51.3 (57544) - http://www.bohemiancoding.com/sketch --><title>003 - Moving Boxes</title><desc>Created with Sketch.</desc><defs/><g id="Page-1" stroke="none" stroke-width="1" fill="none" fill-rule="evenodd"><g id="003---Moving-Boxes" transform="translate(-1.000000, -1.000000)" fill-rule="nonzero"><path d="M22,49 C21.1345848,48.9992215 20.3678458,48.4419233 20.1,47.619 L6.817,6.828 L4.894,7.789 C3.90596258,8.28301871 2.70451871,7.88253742 2.2105,6.8945 C1.71648129,5.90646258 2.11696258,4.70501871 3.105,4.211 L7.105,2.211 C7.62616479,1.94924896 8.23562018,1.92802072 8.77373417,2.15287549 C9.31184816,2.37773027 9.72500927,2.82626612 9.905,3.381 L23.266,44.429 L52.33,34.115 C53.3710568,33.7455215 54.5145215,34.2899432 54.884,35.331 C55.2534785,36.3720568 54.7090568,37.5155215 53.668,37.885 L22.668,48.885 C22.4535283,48.9611757 22.227598,49.0000708 22,49 Z" id="Shape" fill="#A4C2F7"/><path d="M32,54 C32,57.3137085 29.3137085,60 26,60 C25.3904899,59.9981617 24.7843677,59.9092638 24.2,59.736 C21.6994897,58.9437778 20.0003038,56.6230074 20.0003038,54 C20.0003038,51.3769926 21.6994897,49.0562222 24.2,48.264 C24.7843677,48.0907362 25.3904899,48.0018383 26,48 C29.3137085,48 32,50.6862915 32,54 Z" id="Shape" fill="#7FACFA"/><ellipse id="Oval" fill="#A4C2F7" cx="24.2" cy="54" rx="4.2" ry="5.736"/><circle id="Oval" fill="#7FACFA" cx="25.999" cy="54" r="2"/><rect id="Rectangle-path" fill="#CAD9FC" transform="translate(35.171208, 29.633794) rotate(-19.342000) translate(-35.171208, -29.633794) " x="24.1712083" y="19.6337942" width="22" height="20" rx="1"/><rect id="Rectangle-path" fill="#E8EDFC" transform="translate(33.858002, 30.095648) rotate(-19.342000) translate(-33.858002, -30.095648) " x="24.2070022" y="20.0956483" width="19.302" height="20" rx="1"/><path d="M35.529,26.29 L34.492,26.025 C34.1007086,25.9249854 33.6876668,26.0701615 33.445,26.393 L32.801,27.248 C32.5791857,27.5423714 32.213423,27.6908584 31.8491854,27.6344037 C31.4849479,27.5779489 31.1812959,27.3257065 31.059,26.978 L29.028,21.192 L34.689,19.2 L36.72,24.99 C36.8420703,25.3379019 36.7628034,25.7247502 36.513742,25.9966056 C36.2646807,26.268461 35.8862348,26.3812153 35.529,26.29 Z" id="Shape" fill="#A4C2F7"/><rect id="Rectangle-path" fill="#CAD9FC" transform="translate(28.930740, 14.119212) rotate(-19.342000) translate(-28.930740, -14.119212) " x="21.5567404" y="7.41521173" width="14.748" height="13.408" rx="1"/><rect id="Rectangle-path" fill="#E8EDFC" transform="translate(27.381401, 14.662877) rotate(-19.342000) translate(-27.381401, -14.662877) " x="21.529401" y="7.95887704" width="11.704" height="13.408" rx="1"/><path d="M29.479,11.956 L28.365,11.671 C28.169511,11.6212131 27.9632527,11.6937781 27.842,11.855 L27.151,12.773 C27.0400928,12.9201857 26.8572115,12.9944292 26.6750927,12.9662018 C26.4929739,12.9379745 26.341148,12.8118533 26.28,12.638 L24.813,8.459 L28.613,7.127 L30.08,11.306 C30.1420976,11.4810892 30.1020008,11.6761726 29.97588,11.812576 C29.8497593,11.9489795 29.6584099,12.0042123 29.479,11.956 Z" id="Shape" fill="#A4C2F7"/><path d="M4.894,7.789 L5.612,7.43 C5.13920885,6.98377705 4.91573183,6.33380497 5.01415106,5.6911853 C5.11257029,5.04856562 5.5203316,4.49526968 6.105,4.211 L9.386,2.57 C8.78328535,1.96969118 7.86297125,1.8248456 7.105,2.211 L3.105,4.211 C2.11696258,4.70501871 1.71648129,5.90646258 2.2105,6.8945 C2.70451871,7.88253742 3.90596258,8.28301871 4.894,7.789 Z" id="Shape" fill="#FFFFFF"/><path d="M7.194,7.986 L20.1,47.619 C20.2669731,48.1319421 20.6340694,48.5556852 21.1179768,48.7940614 C21.6018842,49.0324376 22.1615649,49.0652313 22.67,48.885 L23.193,48.699 C20.499346,50.1178311 19.297504,53.3308144 20.3987304,56.1691508 C21.4999569,59.0074872 24.5542809,60.5691502 27.5,59.8 C25.104576,59.1814812 23.3352656,57.1548038 23.0457393,54.6978145 C22.756213,52.2408252 24.0059628,49.8583883 26.192,48.7 L25.669,48.886 C25.1605649,49.0662313 24.6008842,49.0334376 24.1169768,48.7950614 C23.6330694,48.5566852 23.2659731,48.1329421 23.099,47.62 L9.817,6.828 L7.894,7.789 C7.67480485,7.89725425 7.43748187,7.96404372 7.194,7.986 Z" id="Shape" fill="#FFFFFF"/><polygon id="Shape" fill="#FFFFFF" points="7.768 6.518 11.792 18.879 21.048 47.31 19.147 47.929 9.891 19.499 5.866 7.137"/><path d="M10.188,14.89 C10.4335942,14.3955278 10.2384561,13.7954448 9.749,13.54 L9.569,13.472 C9.50408262,13.4526141 9.43674817,13.442514 9.369,13.442 C9.30602167,13.4325166 9.24197833,13.4325166 9.179,13.442 C9.11137018,13.4514157 9.04452356,13.4657877 8.979,13.485 C8.72820313,13.5697021 8.51904501,13.7466821 8.394,13.98 C8.15844186,14.4751664 8.3512521,15.0680909 8.833,15.33 C8.95186143,15.3870315 9.08047424,15.4209663 9.212,15.43 C9.34217763,15.4416161 9.473367,15.4273417 9.598,15.388 C9.85082556,15.303043 10.0617955,15.12497 10.188,14.89 Z" id="Shape" fill="#428DFF"/><path d="M3.051,8.846 C3.80537935,9.09965527 4.62984324,9.04133075 5.341,8.684 L6.225,8.242 L7.104,10.942 C7.29103498,11.4445227 7.8411298,11.710094 8.35095642,11.5439979 C8.86078303,11.3779017 9.14887321,10.8392585 9.004,10.323 L7.766,6.523 L7.748,6.529 C7.738873,6.48003402 7.72583113,6.43187945 7.709,6.385 C7.4637891,5.89074103 6.86459872,5.68847512 6.37,5.933 L4.447,6.9 C3.95270515,7.14852814 3.35052814,6.94929485 3.102,6.455 C2.85347186,5.96070515 3.05270515,5.35852814 3.547,5.11 L7.547,3.11 C7.80758239,2.97912448 8.11231009,2.96851036 8.38136708,3.08093775 C8.65042408,3.19336513 8.85700464,3.41763306 8.947,3.695 L22.315,44.738 C22.3984865,44.994471 22.5820347,45.2063426 22.8239884,45.3255307 C23.0659421,45.4447188 23.3457824,45.4611156 23.6,45.371 L52.666,35.057 C53.0469182,34.9234544 53.470775,35.032014 53.740597,35.3322293 C54.010419,35.6324445 54.0732929,36.0654418 53.9,36.43 C53.7870664,36.6699894 53.5823826,36.8544931 53.332,36.942 L24.582,47.142 C23.9727136,47.2697007 23.3834119,47.4789163 22.83,47.764 L22.33,47.941 C22.0757824,48.0311156 21.7959421,48.0147188 21.5539884,47.8955307 C21.3120347,47.7763426 21.1284865,47.564471 21.045,47.308 L11.483,17.929 C11.3838057,17.5755191 11.0988914,17.3048164 10.7408016,17.2238226 C10.3827119,17.1428289 10.0090337,17.2645693 9.76737436,17.540955 C9.52571506,17.8173407 9.45493763,18.203924 9.583,18.548 L19.149,47.929 C19.3874075,48.6468551 19.8871844,49.2487293 20.549,49.615 C18.6780268,51.934916 18.4811448,55.1851 20.0584044,57.7138948 C21.6356639,60.2426897 24.6411489,61.4954938 27.5475518,60.8356656 C30.4539546,60.1758373 32.6238589,57.7480864 32.9545768,54.7861316 C33.2852948,51.8241767 31.7042952,48.9776176 29.015,47.693 L54,38.827 C55.0411012,38.4934552 55.8183428,37.6199855 56.0286576,36.5471801 C56.2389724,35.4743747 55.8490606,34.372094 55.0109592,33.6701468 C54.1728578,32.9681996 53.019266,32.7777272 52,33.173 L49.341,34.116 L43.01,16.09 C42.9220902,15.8397613 42.7383689,15.6346968 42.4992569,15.5199231 C42.2601449,15.4051493 41.9852313,15.390069 41.735,15.478 L38.685,16.548 L34.538,4.732 C34.4500902,4.48176129 34.2663689,4.27669683 34.0272569,4.16192308 C33.7881449,4.04714933 33.5132313,4.03206902 33.263,4.12 L28.2,5.9 L24.4,7.233 L19.34,9.009 C19.0897613,9.09690983 18.8846968,9.2806311 18.7699231,9.51974308 C18.6551493,9.75885506 18.640069,10.0337687 18.728,10.284 L22.883,22.1 L20.977,22.769 C20.4564326,22.952071 20.1825486,23.5222151 20.365,24.043 L26.72,42.143 L23.899,43.143 L10.852,3.071 C10.5817188,2.24055389 9.96298135,1.56910797 9.15734968,1.23198742 C8.35171802,0.894866873 7.43917497,0.92554089 6.658,1.316 L2.658,3.316 C1.57227,3.85846776 0.920365101,5.00168649 1.0064024,6.21233858 C1.0924397,7.42299067 1.8994663,8.46252766 3.051,8.846 Z M26,49 C28.5704019,48.9666972 30.7582869,50.8637925 31.0894236,53.412993 C31.4205603,55.9621935 29.7899652,58.3553027 27.2963592,58.9798056 C24.8027532,59.6043085 22.2367072,58.2622133 21.3272637,55.8578449 C20.4178202,53.4534765 21.4533084,50.7491142 23.736,49.567 L25.069,49.094 C25.3757187,49.0336735 25.6874128,49.0022027 26,49 Z M33.906,20.346 L35.606,25.187 L33.924,24.757 C33.5329142,24.6567666 33.1199183,24.8015321 32.877,25.124 L31.832,26.512 L30.132,21.671 L32.02,21.008 L33.906,20.346 Z M28.748,10.468 L28.216,10.333 C27.8249142,10.2327666 27.4119183,10.3775321 27.169,10.7 L26.84,11.138 L26.014,8.785 L26.968,8.45 L27.921,8.115 L28.748,10.468 Z M24.127,9.447 L25.572,13.563 C25.6937836,13.9112755 25.9974446,14.1641982 26.362,14.221 C26.4126361,14.2286423 26.4637915,14.2323201 26.515,14.232 C26.8297573,14.232 27.1261456,14.0838058 27.315,13.832 L28.367,12.432 L30.067,12.865 C30.4242348,12.9562153 30.8026807,12.843461 31.051742,12.5716056 C31.3008034,12.2997502 31.3800703,11.9129019 31.258,11.565 L29.808,7.452 L32.982,6.338 L36.76,17.1 L24.731,21.324 L20.953,10.561 L24.127,9.447 Z M28.244,22.333 L30.563,28.938 C30.6852959,29.2857065 30.9889479,29.5379489 31.3531854,29.5944037 C31.717423,29.6508584 32.0831857,29.5023714 32.305,29.208 L34.073,26.86 L36.919,27.588 C37.27638,27.6796842 37.6552096,27.5671356 37.9045583,27.295195 C38.1539069,27.0232543 38.2332592,26.636108 38.111,26.288 L35.793,19.688 L41.454,17.7 L47.416,34.68 L28.545,41.3 L22.583,24.32 L28.244,22.333 Z" id="Shape" fill="#428DFF"/><path d="M23,54 C23,55.6568542 24.3431458,57 26,57 C27.6568542,57 29,55.6568542 29,54 C29,52.3431458 27.6568542,51 26,51 C24.3431458,51 23,52.3431458 23,54 Z M26,53 C26.5522847,53 27,53.4477153 27,54 C27,54.5522847 26.5522847,55 26,55 C25.4477153,55 25,54.5522847 25,54 C25,53.4477153 25.4477153,53 26,53 Z" id="Shape" fill="#428DFF"/></g></g></svg>
